<?xml version="1.0" encoding="UTF-8"?>
<svg xmlns="http://www.w3.org/2000/svg" xmlns:xlink="http://www.w3.org/1999/xlink" width="750pt" height="600pt" viewBox="0 0 750 600" version="1.1">
<defs>
<g>
<symbol overflow="visible" id="si3246sX0-0">
<path style="stroke:none;" d="M 0.59375 2.125 L 0.59375 -8.46875 L 6.59375 -8.46875 L 6.59375 2.125 Z M 1.265625 1.453125 L 5.9375 1.453125 L 5.9375 -7.78125 L 1.265625 -7.78125 Z M 1.265625 1.453125 "/>
</symbol>
<symbol overflow="visible" id="si3246sX0-1">
<path style="stroke:none;" d="M 3.71875 -9.109375 C 3.195312 -8.210938 2.804688 -7.320312 2.546875 -6.4375 C 2.296875 -5.5625 2.171875 -4.671875 2.171875 -3.765625 C 2.171875 -2.867188 2.296875 -1.976562 2.546875 -1.09375 C 2.804688 -0.207031 3.195312 0.679688 3.71875 1.578125 L 2.78125 1.578125 C 2.195312 0.660156 1.757812 -0.238281 1.46875 -1.125 C 1.175781 -2.007812 1.03125 -2.890625 1.03125 -3.765625 C 1.03125 -4.640625 1.175781 -5.515625 1.46875 -6.390625 C 1.757812 -7.273438 2.195312 -8.179688 2.78125 -9.109375 Z M 3.71875 -9.109375 "/>
</symbol>
<symbol overflow="visible" id="si3246sX0-2">
<path style="stroke:none;" d="M 1.171875 -8.75 L 2.359375 -8.75 L 2.359375 0 L 1.171875 0 Z M 1.171875 -8.75 "/>
</symbol>
<symbol overflow="visible" id="si3246sX0-3">
<path style="stroke:none;" d="M 6.59375 -3.96875 L 6.59375 0 L 5.515625 0 L 5.515625 -3.921875 C 5.515625 -4.546875 5.390625 -5.007812 5.140625 -5.3125 C 4.898438 -5.625 4.539062 -5.78125 4.0625 -5.78125 C 3.476562 -5.78125 3.015625 -5.59375 2.671875 -5.21875 C 2.335938 -4.851562 2.171875 -4.347656 2.171875 -3.703125 L 2.171875 0 L 1.09375 0 L 1.09375 -6.5625 L 2.171875 -6.5625 L 2.171875 -5.546875 C 2.429688 -5.941406 2.734375 -6.234375 3.078125 -6.421875 C 3.429688 -6.617188 3.835938 -6.71875 4.296875 -6.71875 C 5.046875 -6.71875 5.613281 -6.484375 6 -6.015625 C 6.394531 -5.554688 6.59375 -4.875 6.59375 -3.96875 Z M 6.59375 -3.96875 "/>
</symbol>
<symbol overflow="visible" id="si3246sX0-4">
<path style="stroke:none;" d="M 2.171875 -0.984375 L 2.171875 2.5 L 1.09375 2.5 L 1.09375 -6.5625 L 2.171875 -6.5625 L 2.171875 -5.5625 C 2.398438 -5.957031 2.6875 -6.25 3.03125 -6.4375 C 3.375 -6.625 3.785156 -6.71875 4.265625 -6.71875 C 5.066406 -6.71875 5.71875 -6.398438 6.21875 -5.765625 C 6.71875 -5.140625 6.96875 -4.3125 6.96875 -3.28125 C 6.96875 -2.25 6.71875 -1.414062 6.21875 -0.78125 C 5.71875 -0.144531 5.066406 0.171875 4.265625 0.171875 C 3.785156 0.171875 3.375 0.078125 3.03125 -0.109375 C 2.6875 -0.304688 2.398438 -0.597656 2.171875 -0.984375 Z M 5.84375 -3.28125 C 5.84375 -4.070312 5.675781 -4.691406 5.34375 -5.140625 C 5.019531 -5.585938 4.578125 -5.8125 4.015625 -5.8125 C 3.441406 -5.8125 2.988281 -5.585938 2.65625 -5.140625 C 2.332031 -4.691406 2.171875 -4.070312 2.171875 -3.28125 C 2.171875 -2.488281 2.332031 -1.863281 2.65625 -1.40625 C 2.988281 -0.957031 3.441406 -0.734375 4.015625 -0.734375 C 4.578125 -0.734375 5.019531 -0.957031 5.34375 -1.40625 C 5.675781 -1.863281 5.84375 -2.488281 5.84375 -3.28125 Z M 5.84375 -3.28125 "/>
</symbol>
<symbol overflow="visible" id="si3246sX0-5">
<path style="stroke:none;" d="M 0.59375 -3.765625 L 3.75 -3.765625 L 3.75 -2.8125 L 0.59375 -2.8125 Z M 0.59375 -3.765625 "/>
</symbol>
<symbol overflow="visible" id="si3246sX0-6">
<path style="stroke:none;" d="M 3.8125 -7.96875 C 3.207031 -7.96875 2.75 -7.664062 2.4375 -7.0625 C 2.132812 -6.46875 1.984375 -5.566406 1.984375 -4.359375 C 1.984375 -3.160156 2.132812 -2.257812 2.4375 -1.65625 C 2.75 -1.0625 3.207031 -0.765625 3.8125 -0.765625 C 4.425781 -0.765625 4.882812 -1.0625 5.1875 -1.65625 C 5.5 -2.257812 5.65625 -3.160156 5.65625 -4.359375 C 5.65625 -5.566406 5.5 -6.46875 5.1875 -7.0625 C 4.882812 -7.664062 4.425781 -7.96875 3.8125 -7.96875 Z M 3.8125 -8.90625 C 4.789062 -8.90625 5.539062 -8.515625 6.0625 -7.734375 C 6.582031 -6.960938 6.84375 -5.835938 6.84375 -4.359375 C 6.84375 -2.890625 6.582031 -1.765625 6.0625 -0.984375 C 5.539062 -0.210938 4.789062 0.171875 3.8125 0.171875 C 2.832031 0.171875 2.082031 -0.210938 1.5625 -0.984375 C 1.050781 -1.765625 0.796875 -2.890625 0.796875 -4.359375 C 0.796875 -5.835938 1.050781 -6.960938 1.5625 -7.734375 C 2.082031 -8.515625 2.832031 -8.90625 3.8125 -8.90625 Z M 3.8125 -8.90625 "/>
</symbol>
<symbol overflow="visible" id="si3246sX1-0">
<path style="stroke:none;" d="M 0.59375 2.125 L 0.59375 -8.46875 L 6.59375 -8.46875 L 6.59375 2.125 Z M 1.265625 1.453125 L 5.9375 1.453125 L 5.9375 -7.78125 L 1.265625 -7.78125 Z M 1.265625 1.453125 "/>
</symbol>
<symbol overflow="visible" id="si3246sX1-1">
<path style="stroke:none;" d="M 2.203125 -8.421875 L 2.203125 -6.5625 L 4.421875 -6.5625 L 4.421875 -5.71875 L 2.203125 -5.71875 L 2.203125 -2.15625 C 2.203125 -1.625 2.273438 -1.28125 2.421875 -1.125 C 2.566406 -0.976562 2.863281 -0.90625 3.3125 -0.90625 L 4.421875 -0.90625 L 4.421875 0 L 3.3125 0 C 2.476562 0 1.898438 -0.15625 1.578125 -0.46875 C 1.265625 -0.78125 1.109375 -1.34375 1.109375 -2.15625 L 1.109375 -5.71875 L 0.328125 -5.71875 L 0.328125 -6.5625 L 1.109375 -6.5625 L 1.109375 -8.421875 Z M 2.203125 -8.421875 "/>
</symbol>
<symbol overflow="visible" id="si3246sX1-2">
<path style="stroke:none;" d="M 6.75 -3.546875 L 6.75 -3.03125 L 1.78125 -3.03125 C 1.832031 -2.28125 2.054688 -1.710938 2.453125 -1.328125 C 2.859375 -0.941406 3.414062 -0.75 4.125 -0.75 C 4.539062 -0.75 4.941406 -0.796875 5.328125 -0.890625 C 5.722656 -0.992188 6.113281 -1.148438 6.5 -1.359375 L 6.5 -0.328125 C 6.101562 -0.171875 5.703125 -0.0507812 5.296875 0.03125 C 4.890625 0.125 4.476562 0.171875 4.0625 0.171875 C 3.019531 0.171875 2.191406 -0.128906 1.578125 -0.734375 C 0.960938 -1.347656 0.65625 -2.175781 0.65625 -3.21875 C 0.65625 -4.289062 0.945312 -5.140625 1.53125 -5.765625 C 2.113281 -6.398438 2.894531 -6.71875 3.875 -6.71875 C 4.757812 -6.71875 5.457031 -6.429688 5.96875 -5.859375 C 6.488281 -5.296875 6.75 -4.523438 6.75 -3.546875 Z M 5.671875 -3.875 C 5.660156 -4.457031 5.492188 -4.925781 5.171875 -5.28125 C 4.847656 -5.632812 4.421875 -5.8125 3.890625 -5.8125 C 3.285156 -5.8125 2.800781 -5.640625 2.4375 -5.296875 C 2.082031 -4.953125 1.878906 -4.472656 1.828125 -3.859375 Z M 5.671875 -3.875 "/>
</symbol>
<symbol overflow="visible" id="si3246sX1-3">
<path style="stroke:none;" d="M 1.296875 -8.75 L 5.9375 -8.75 L 5.9375 -7.75 L 2.375 -7.75 L 2.375 -5.609375 C 2.550781 -5.671875 2.722656 -5.710938 2.890625 -5.734375 C 3.066406 -5.765625 3.238281 -5.78125 3.40625 -5.78125 C 4.382812 -5.78125 5.160156 -5.507812 5.734375 -4.96875 C 6.304688 -4.4375 6.59375 -3.71875 6.59375 -2.8125 C 6.59375 -1.863281 6.296875 -1.128906 5.703125 -0.609375 C 5.117188 -0.0859375 4.296875 0.171875 3.234375 0.171875 C 2.859375 0.171875 2.476562 0.140625 2.09375 0.078125 C 1.71875 0.015625 1.328125 -0.078125 0.921875 -0.203125 L 0.921875 -1.390625 C 1.273438 -1.203125 1.640625 -1.0625 2.015625 -0.96875 C 2.390625 -0.875 2.785156 -0.828125 3.203125 -0.828125 C 3.878906 -0.828125 4.414062 -1.003906 4.8125 -1.359375 C 5.207031 -1.710938 5.40625 -2.195312 5.40625 -2.8125 C 5.40625 -3.414062 5.207031 -3.894531 4.8125 -4.25 C 4.414062 -4.601562 3.878906 -4.78125 3.203125 -4.78125 C 2.890625 -4.78125 2.570312 -4.742188 2.25 -4.671875 C 1.9375 -4.609375 1.617188 -4.503906 1.296875 -4.359375 Z M 1.296875 -8.75 "/>
</symbol>
<symbol overflow="visible" id="si3246sX2-0">
<path style="stroke:none;" d="M 0.59375 2.125 L 0.59375 -8.46875 L 6.59375 -8.46875 L 6.59375 2.125 Z M 1.265625 1.453125 L 5.9375 1.453125 L 5.9375 -7.78125 L 1.265625 -7.78125 Z M 1.265625 1.453125 "/>
</symbol>
<symbol overflow="visible" id="si3246sX2-1">
<path style="stroke:none;" d="M 4.9375 -5.5625 C 4.8125 -5.625 4.675781 -5.671875 4.53125 -5.703125 C 4.394531 -5.742188 4.238281 -5.765625 4.0625 -5.765625 C 3.457031 -5.765625 2.988281 -5.566406 2.65625 -5.171875 C 2.332031 -4.773438 2.171875 -4.203125 2.171875 -3.453125 L 2.171875 0 L 1.09375 0 L 1.09375 -6.5625 L 2.171875 -6.5625 L 2.171875 -5.546875 C 2.398438 -5.941406 2.695312 -6.234375 3.0625 -6.421875 C 3.425781 -6.617188 3.867188 -6.71875 4.390625 -6.71875 C 4.460938 -6.71875 4.539062 -6.710938 4.625 -6.703125 C 4.71875 -6.691406 4.816406 -6.675781 4.921875 -6.65625 Z M 4.9375 -5.5625 "/>
</symbol>
<symbol overflow="visible" id="si3246sX2-2">
<path style="stroke:none;" d="M 2.203125 -8.421875 L 2.203125 -6.5625 L 4.421875 -6.5625 L 4.421875 -5.71875 L 2.203125 -5.71875 L 2.203125 -2.15625 C 2.203125 -1.625 2.273438 -1.28125 2.421875 -1.125 C 2.566406 -0.976562 2.863281 -0.90625 3.3125 -0.90625 L 4.421875 -0.90625 L 4.421875 0 L 3.3125 0 C 2.476562 0 1.898438 -0.15625 1.578125 -0.46875 C 1.265625 -0.78125 1.109375 -1.34375 1.109375 -2.15625 L 1.109375 -5.71875 L 0.328125 -5.71875 L 0.328125 -6.5625 L 1.109375 -6.5625 L 1.109375 -8.421875 Z M 2.203125 -8.421875 "/>
</symbol>
<symbol overflow="visible" id="si3246sX3-0">
<path style="stroke:none;" d="M 0.59375 2.125 L 0.59375 -8.46875 L 6.59375 -8.46875 L 6.59375 2.125 Z M 1.265625 1.453125 L 5.9375 1.453125 L 5.9375 -7.78125 L 1.265625 -7.78125 Z M 1.265625 1.453125 "/>
</symbol>
<symbol overflow="visible" id="si3246sX3-1">
<path style="stroke:none;" d="M 5.859375 -6.3125 L 5.859375 -5.296875 C 5.546875 -5.472656 5.238281 -5.601562 4.9375 -5.6875 C 4.632812 -5.769531 4.328125 -5.8125 4.015625 -5.8125 C 3.304688 -5.8125 2.757812 -5.585938 2.375 -5.140625 C 1.988281 -4.703125 1.796875 -4.082031 1.796875 -3.28125 C 1.796875 -2.476562 1.988281 -1.851562 2.375 -1.40625 C 2.757812 -0.96875 3.304688 -0.75 4.015625 -0.75 C 4.328125 -0.75 4.632812 -0.789062 4.9375 -0.875 C 5.238281 -0.957031 5.546875 -1.082031 5.859375 -1.25 L 5.859375 -0.25 C 5.554688 -0.113281 5.242188 -0.0078125 4.921875 0.0625 C 4.597656 0.132812 4.253906 0.171875 3.890625 0.171875 C 2.898438 0.171875 2.113281 -0.132812 1.53125 -0.75 C 0.945312 -1.375 0.65625 -2.21875 0.65625 -3.28125 C 0.65625 -4.34375 0.945312 -5.179688 1.53125 -5.796875 C 2.125 -6.410156 2.9375 -6.71875 3.96875 -6.71875 C 4.289062 -6.71875 4.609375 -6.679688 4.921875 -6.609375 C 5.242188 -6.546875 5.554688 -6.445312 5.859375 -6.3125 Z M 5.859375 -6.3125 "/>
</symbol>
<symbol overflow="visible" id="si3246sX3-2">
<path style="stroke:none;" d="M 6.75 -3.546875 L 6.75 -3.03125 L 1.78125 -3.03125 C 1.832031 -2.28125 2.054688 -1.710938 2.453125 -1.328125 C 2.859375 -0.941406 3.414062 -0.75 4.125 -0.75 C 4.539062 -0.75 4.941406 -0.796875 5.328125 -0.890625 C 5.722656 -0.992188 6.113281 -1.148438 6.5 -1.359375 L 6.5 -0.328125 C 6.101562 -0.171875 5.703125 -0.0507812 5.296875 0.03125 C 4.890625 0.125 4.476562 0.171875 4.0625 0.171875 C 3.019531 0.171875 2.191406 -0.128906 1.578125 -0.734375 C 0.960938 -1.347656 0.65625 -2.175781 0.65625 -3.21875 C 0.65625 -4.289062 0.945312 -5.140625 1.53125 -5.765625 C 2.113281 -6.398438 2.894531 -6.71875 3.875 -6.71875 C 4.757812 -6.71875 5.457031 -6.429688 5.96875 -5.859375 C 6.488281 -5.296875 6.75 -4.523438 6.75 -3.546875 Z M 5.671875 -3.875 C 5.660156 -4.457031 5.492188 -4.925781 5.171875 -5.28125 C 4.847656 -5.632812 4.421875 -5.8125 3.890625 -5.8125 C 3.285156 -5.8125 2.800781 -5.640625 2.4375 -5.296875 C 2.082031 -4.953125 1.878906 -4.472656 1.828125 -3.859375 Z M 5.671875 -3.875 "/>
</symbol>
<symbol overflow="visible" id="si3246sX3-3">
<path style="stroke:none;" d="M 0.96875 -9.109375 L 1.90625 -9.109375 C 2.488281 -8.179688 2.925781 -7.273438 3.21875 -6.390625 C 3.507812 -5.515625 3.65625 -4.640625 3.65625 -3.765625 C 3.65625 -2.890625 3.507812 -2.007812 3.21875 -1.125 C 2.925781 -0.238281 2.488281 0.660156 1.90625 1.578125 L 0.96875 1.578125 C 1.476562 0.679688 1.863281 -0.207031 2.125 -1.09375 C 2.382812 -1.976562 2.515625 -2.867188 2.515625 -3.765625 C 2.515625 -4.671875 2.382812 -5.5625 2.125 -6.4375 C 1.863281 -7.320312 1.476562 -8.210938 0.96875 -9.109375 Z M 0.96875 -9.109375 "/>
</symbol>
<symbol overflow="visible" id="si3246sX3-4">
<path style="stroke:none;" d="M 1.296875 -8.75 L 5.9375 -8.75 L 5.9375 -7.75 L 2.375 -7.75 L 2.375 -5.609375 C 2.550781 -5.671875 2.722656 -5.710938 2.890625 -5.734375 C 3.066406 -5.765625 3.238281 -5.78125 3.40625 -5.78125 C 4.382812 -5.78125 5.160156 -5.507812 5.734375 -4.96875 C 6.304688 -4.4375 6.59375 -3.71875 6.59375 -2.8125 C 6.59375 -1.863281 6.296875 -1.128906 5.703125 -0.609375 C 5.117188 -0.0859375 4.296875 0.171875 3.234375 0.171875 C 2.859375 0.171875 2.476562 0.140625 2.09375 0.078125 C 1.71875 0.015625 1.328125 -0.078125 0.921875 -0.203125 L 0.921875 -1.390625 C 1.273438 -1.203125 1.640625 -1.0625 2.015625 -0.96875 C 2.390625 -0.875 2.785156 -0.828125 3.203125 -0.828125 C 3.878906 -0.828125 4.414062 -1.003906 4.8125 -1.359375 C 5.207031 -1.710938 5.40625 -2.195312 5.40625 -2.8125 C 5.40625 -3.414062 5.207031 -3.894531 4.8125 -4.25 C 4.414062 -4.601562 3.878906 -4.78125 3.203125 -4.78125 C 2.890625 -4.78125 2.570312 -4.742188 2.25 -4.671875 C 1.9375 -4.609375 1.617188 -4.503906 1.296875 -4.359375 Z M 1.296875 -8.75 "/>
</symbol>
<symbol overflow="visible" id="si3246sX3-5">
<path style="stroke:none;" d="M 3.8125 -7.96875 C 3.207031 -7.96875 2.75 -7.664062 2.4375 -7.0625 C 2.132812 -6.46875 1.984375 -5.566406 1.984375 -4.359375 C 1.984375 -3.160156 2.132812 -2.257812 2.4375 -1.65625 C 2.75 -1.0625 3.207031 -0.765625 3.8125 -0.765625 C 4.425781 -0.765625 4.882812 -1.0625 5.1875 -1.65625 C 5.5 -2.257812 5.65625 -3.160156 5.65625 -4.359375 C 5.65625 -5.566406 5.5 -6.46875 5.1875 -7.0625 C 4.882812 -7.664062 4.425781 -7.96875 3.8125 -7.96875 Z M 3.8125 -8.90625 C 4.789062 -8.90625 5.539062 -8.515625 6.0625 -7.734375 C 6.582031 -6.960938 6.84375 -5.835938 6.84375 -4.359375 C 6.84375 -2.890625 6.582031 -1.765625 6.0625 -0.984375 C 5.539062 -0.210938 4.789062 0.171875 3.8125 0.171875 C 2.832031 0.171875 2.082031 -0.210938 1.5625 -0.984375 C 1.050781 -1.765625 0.796875 -2.890625 0.796875 -4.359375 C 0.796875 -5.835938 1.050781 -6.960938 1.5625 -7.734375 C 2.082031 -8.515625 2.832031 -8.90625 3.8125 -8.90625 Z M 3.8125 -8.90625 "/>
</symbol>
<symbol overflow="visible" id="si3246sX4-0">
<path style="stroke:none;" d="M 0.59375 2.125 L 0.59375 -8.46875 L 6.59375 -8.46875 L 6.59375 2.125 Z M 1.265625 1.453125 L 5.9375 1.453125 L 5.9375 -7.78125 L 1.265625 -7.78125 Z M 1.265625 1.453125 "/>
</symbol>
<symbol overflow="visible" id="si3246sX4-1">
<path style="stroke:none;" d="M 1.171875 -8.75 L 6.203125 -8.75 L 6.203125 -7.75 L 2.359375 -7.75 L 2.359375 -5.171875 L 5.828125 -5.171875 L 5.828125 -4.171875 L 2.359375 -4.171875 L 2.359375 0 L 1.171875 0 Z M 1.171875 -8.75 "/>
</symbol>
<symbol overflow="visible" id="si3246sX5-0">
<path style="stroke:none;" d="M 0.59375 2.125 L 0.59375 -8.46875 L 6.59375 -8.46875 L 6.59375 2.125 Z M 1.265625 1.453125 L 5.9375 1.453125 L 5.9375 -7.78125 L 1.265625 -7.78125 Z M 1.265625 1.453125 "/>
</symbol>
<symbol overflow="visible" id="si3246sX5-1">
<path style="stroke:none;" d="M 2.359375 -7.78125 L 2.359375 -0.96875 L 3.796875 -0.96875 C 5.003906 -0.96875 5.882812 -1.238281 6.4375 -1.78125 C 7 -2.332031 7.28125 -3.203125 7.28125 -4.390625 C 7.28125 -5.554688 7 -6.410156 6.4375 -6.953125 C 5.882812 -7.503906 5.003906 -7.78125 3.796875 -7.78125 Z M 1.171875 -8.75 L 3.609375 -8.75 C 5.304688 -8.75 6.550781 -8.394531 7.34375 -7.6875 C 8.132812 -6.988281 8.53125 -5.890625 8.53125 -4.390625 C 8.53125 -2.878906 8.128906 -1.769531 7.328125 -1.0625 C 6.535156 -0.351562 5.296875 0 3.609375 0 L 1.171875 0 Z M 1.171875 -8.75 "/>
</symbol>
<symbol overflow="visible" id="si3246sX6-0">
<path style="stroke:none;" d="M 0.59375 2.125 L 0.59375 -8.46875 L 6.59375 -8.46875 L 6.59375 2.125 Z M 1.265625 1.453125 L 5.9375 1.453125 L 5.9375 -7.78125 L 1.265625 -7.78125 Z M 1.265625 1.453125 "/>
</symbol>
<symbol overflow="visible" id="si3246sX6-1">
<path style="stroke:none;" d="M 4.109375 -7.578125 L 2.5 -3.234375 L 5.71875 -3.234375 Z M 3.4375 -8.75 L 4.78125 -8.75 L 8.109375 0 L 6.875 0 L 6.078125 -2.25 L 2.140625 -2.25 L 1.34375 0 L 0.09375 0 Z M 3.4375 -8.75 "/>
</symbol>
<symbol overflow="visible" id="si3246sX7-0">
<path style="stroke:none;" d="M 0.59375 2.125 L 0.59375 -8.46875 L 6.59375 -8.46875 L 6.59375 2.125 Z M 1.265625 1.453125 L 5.9375 1.453125 L 5.9375 -7.78125 L 1.265625 -7.78125 Z M 1.265625 1.453125 "/>
</symbol>
<symbol overflow="visible" id="si3246sX7-1">
<path style="stroke:none;" d="M 2.359375 -4.171875 L 2.359375 -0.96875 L 4.265625 -0.96875 C 4.898438 -0.96875 5.367188 -1.097656 5.671875 -1.359375 C 5.984375 -1.628906 6.140625 -2.035156 6.140625 -2.578125 C 6.140625 -3.128906 5.984375 -3.53125 5.671875 -3.78125 C 5.367188 -4.039062 4.898438 -4.171875 4.265625 -4.171875 Z M 2.359375 -7.78125 L 2.359375 -5.140625 L 4.109375 -5.140625 C 4.691406 -5.140625 5.125 -5.25 5.40625 -5.46875 C 5.6875 -5.6875 5.828125 -6.015625 5.828125 -6.453125 C 5.828125 -6.898438 5.6875 -7.234375 5.40625 -7.453125 C 5.125 -7.671875 4.691406 -7.78125 4.109375 -7.78125 Z M 1.171875 -8.75 L 4.203125 -8.75 C 5.109375 -8.75 5.800781 -8.5625 6.28125 -8.1875 C 6.769531 -7.8125 7.015625 -7.28125 7.015625 -6.59375 C 7.015625 -6.050781 6.890625 -5.617188 6.640625 -5.296875 C 6.390625 -4.984375 6.023438 -4.789062 5.546875 -4.71875 C 6.128906 -4.59375 6.582031 -4.332031 6.90625 -3.9375 C 7.226562 -3.539062 7.390625 -3.046875 7.390625 -2.453125 C 7.390625 -1.671875 7.125 -1.066406 6.59375 -0.640625 C 6.0625 -0.210938 5.300781 0 4.3125 0 L 1.171875 0 Z M 1.171875 -8.75 "/>
</symbol>
<symbol overflow="visible" id="si3246sX8-0">
<path style="stroke:none;" d="M 0.59375 2.125 L 0.59375 -8.46875 L 6.59375 -8.46875 L 6.59375 2.125 Z M 1.265625 1.453125 L 5.9375 1.453125 L 5.9375 -7.78125 L 1.265625 -7.78125 Z M 1.265625 1.453125 "/>
</symbol>
<symbol overflow="visible" id="si3246sX8-1">
<path style="stroke:none;" d="M 7.734375 -8.078125 L 7.734375 -6.828125 C 7.328125 -7.203125 6.898438 -7.476562 6.453125 -7.65625 C 6.003906 -7.84375 5.523438 -7.9375 5.015625 -7.9375 C 4.015625 -7.9375 3.25 -7.628906 2.71875 -7.015625 C 2.1875 -6.398438 1.921875 -5.515625 1.921875 -4.359375 C 1.921875 -3.210938 2.1875 -2.332031 2.71875 -1.71875 C 3.25 -1.101562 4.015625 -0.796875 5.015625 -0.796875 C 5.523438 -0.796875 6.003906 -0.890625 6.453125 -1.078125 C 6.898438 -1.265625 7.328125 -1.539062 7.734375 -1.90625 L 7.734375 -0.671875 C 7.316406 -0.390625 6.875 -0.175781 6.40625 -0.03125 C 5.945312 0.101562 5.460938 0.171875 4.953125 0.171875 C 3.617188 0.171875 2.570312 -0.234375 1.8125 -1.046875 C 1.050781 -1.859375 0.671875 -2.960938 0.671875 -4.359375 C 0.671875 -5.765625 1.050781 -6.875 1.8125 -7.6875 C 2.570312 -8.5 3.617188 -8.90625 4.953125 -8.90625 C 5.472656 -8.90625 5.960938 -8.832031 6.421875 -8.6875 C 6.890625 -8.550781 7.328125 -8.347656 7.734375 -8.078125 Z M 7.734375 -8.078125 "/>
</symbol>
<symbol overflow="visible" id="si3246sX9-0">
<path style="stroke:none;" d="M 0.59375 2.125 L 0.59375 -8.46875 L 6.59375 -8.46875 L 6.59375 2.125 Z M 1.265625 1.453125 L 5.9375 1.453125 L 5.9375 -7.78125 L 1.265625 -7.78125 Z M 1.265625 1.453125 "/>
</symbol>
<symbol overflow="visible" id="si3246sX9-1">
<path style="stroke:none;" d="M 1.171875 -8.75 L 6.703125 -8.75 L 6.703125 -7.75 L 2.359375 -7.75 L 2.359375 -5.15625 L 6.53125 -5.15625 L 6.53125 -4.171875 L 2.359375 -4.171875 L 2.359375 -1 L 6.8125 -1 L 6.8125 0 L 1.171875 0 Z M 1.171875 -8.75 "/>
</symbol>
</g>
</defs>
<g id="surface1">
<rect x="0" y="0" width="750" height="600" style="fill:rgb(100%,100%,100%);fill-opacity:1;stroke:none;"/>
<path style=" stroke:none;fill-rule:nonzero;fill:rgb(100%,100%,100%);fill-opacity:1;" d="M 28.5 552 L 738 552 L 738 12 L 28.5 12 Z M 28.5 552 "/>
<path style="fill:none;stroke-width:1;stroke-linecap:butt;stroke-linejoin:miter;stroke:rgb(0%,0%,0%);stroke-opacity:0.12;stroke-miterlimit:10;" d="M 231.15625 736 L 231.15625 16 " transform="matrix(0.75,0,0,0.75,0,0)"/>
<path style="fill:none;stroke-width:1;stroke-linecap:butt;stroke-linejoin:miter;stroke:rgb(0%,0%,0%);stroke-opacity:0.12;stroke-miterlimit:10;" d="M 483.072917 736 L 483.072917 16 " transform="matrix(0.75,0,0,0.75,0,0)"/>
<path style="fill:none;stroke-width:1;stroke-linecap:butt;stroke-linejoin:miter;stroke:rgb(0%,0%,0%);stroke-opacity:0.12;stroke-miterlimit:10;" d="M 734.994792 736 L 734.994792 16 " transform="matrix(0.75,0,0,0.75,0,0)"/>
<path style="fill:none;stroke-width:1;stroke-linecap:butt;stroke-linejoin:miter;stroke:rgb(0%,0%,0%);stroke-opacity:0.12;stroke-miterlimit:10;" d="M 38 703.270833 L 984 703.270833 " transform="matrix(0.75,0,0,0.75,0,0)"/>
<path style="fill:none;stroke-width:1;stroke-linecap:butt;stroke-linejoin:miter;stroke:rgb(0%,0%,0%);stroke-opacity:0.12;stroke-miterlimit:10;" d="M 38 572.364583 L 984 572.364583 " transform="matrix(0.75,0,0,0.75,0,0)"/>
<path style="fill:none;stroke-width:1;stroke-linecap:butt;stroke-linejoin:miter;stroke:rgb(0%,0%,0%);stroke-opacity:0.12;stroke-miterlimit:10;" d="M 38 441.453125 L 984 441.453125 " transform="matrix(0.75,0,0,0.75,0,0)"/>
<path style="fill:none;stroke-width:1;stroke-linecap:butt;stroke-linejoin:miter;stroke:rgb(0%,0%,0%);stroke-opacity:0.12;stroke-miterlimit:10;" d="M 38 310.546875 L 984 310.546875 " transform="matrix(0.75,0,0,0.75,0,0)"/>
<path style="fill:none;stroke-width:1;stroke-linecap:butt;stroke-linejoin:miter;stroke:rgb(0%,0%,0%);stroke-opacity:0.12;stroke-miterlimit:10;" d="M 38 179.635417 L 984 179.635417 " transform="matrix(0.75,0,0,0.75,0,0)"/>
<path style="fill:none;stroke-width:1;stroke-linecap:butt;stroke-linejoin:miter;stroke:rgb(0%,0%,0%);stroke-opacity:0.12;stroke-miterlimit:10;" d="M 38 48.729167 L 984 48.729167 " transform="matrix(0.75,0,0,0.75,0,0)"/>
<g style="fill:rgb(0%,0%,0%);fill-opacity:1;">
  <use xlink:href="#si3246sX0-1" x="351.816406" y="586.109375"/>
</g>
<g style="fill:rgb(0%,0%,0%);fill-opacity:1;">
  <use xlink:href="#si3246sX0-2" x="356.496094" y="586.109375"/>
</g>
<g style="fill:rgb(0%,0%,0%);fill-opacity:1;">
  <use xlink:href="#si3246sX0-3" x="360.035156" y="586.109375"/>
</g>
<g style="fill:rgb(0%,0%,0%);fill-opacity:1;">
  <use xlink:href="#si3246sX1-1" x="367.640625" y="586.109375"/>
</g>
<g style="fill:rgb(0%,0%,0%);fill-opacity:1;">
  <use xlink:href="#si3246sX1-2" x="372.347656" y="586.109375"/>
</g>
<g style="fill:rgb(0%,0%,0%);fill-opacity:1;">
  <use xlink:href="#si3246sX2-1" x="379.730469" y="586.109375"/>
</g>
<g style="fill:rgb(0%,0%,0%);fill-opacity:1;">
  <use xlink:href="#si3246sX3-1" x="384.664062" y="586.109375"/>
</g>
<g style="fill:rgb(0%,0%,0%);fill-opacity:1;">
  <use xlink:href="#si3246sX3-2" x="391.257812" y="586.109375"/>
</g>
<g style="fill:rgb(0%,0%,0%);fill-opacity:1;">
  <use xlink:href="#si3246sX0-4" x="398.640625" y="586.109375"/>
</g>
<g style="fill:rgb(0%,0%,0%);fill-opacity:1;">
  <use xlink:href="#si3246sX2-2" x="406.261719" y="586.109375"/>
</g>
<g style="fill:rgb(0%,0%,0%);fill-opacity:1;">
  <use xlink:href="#si3246sX3-3" x="410.964844" y="586.109375"/>
</g>
<g style="fill:rgb(0%,0%,0%);fill-opacity:1;">
  <use xlink:href="#si3246sX0-5" x="164.066406" y="569.890625"/>
</g>
<g style="fill:rgb(0%,0%,0%);fill-opacity:1;">
  <use xlink:href="#si3246sX1-3" x="168.398438" y="569.890625"/>
</g>
<g style="fill:rgb(0%,0%,0%);fill-opacity:1;">
  <use xlink:href="#si3246sX0-6" x="176.03125" y="569.890625"/>
</g>
<g style="fill:rgb(0%,0%,0%);fill-opacity:1;">
  <use xlink:href="#si3246sX0-6" x="358.886719" y="569.890625"/>
</g>
<g style="fill:rgb(0%,0%,0%);fill-opacity:1;">
  <use xlink:href="#si3246sX3-4" x="543.941406" y="569.890625"/>
</g>
<g style="fill:rgb(0%,0%,0%);fill-opacity:1;">
  <use xlink:href="#si3246sX3-5" x="551.574219" y="569.890625"/>
</g>
<g style="fill:rgb(0%,0%,0%);fill-opacity:1;">
  <use xlink:href="#si3246sX4-1" x="15.222656" y="531.609375"/>
</g>
<g style="fill:rgb(0%,0%,0%);fill-opacity:1;">
  <use xlink:href="#si3246sX5-1" x="12.898437" y="433.425781"/>
</g>
<g style="fill:rgb(0%,0%,0%);fill-opacity:1;">
  <use xlink:href="#si3246sX6-1" x="12.234375" y="335.246094"/>
</g>
<g style="fill:rgb(0%,0%,0%);fill-opacity:1;">
  <use xlink:href="#si3246sX7-1" x="14.042969" y="237.0625"/>
</g>
<g style="fill:rgb(0%,0%,0%);fill-opacity:1;">
  <use xlink:href="#si3246sX8-1" x="13.195312" y="138.882812"/>
</g>
<g style="fill:rgb(0%,0%,0%);fill-opacity:1;">
  <use xlink:href="#si3246sX9-1" x="14.613281" y="40.699219"/>
</g>
<path style=" stroke:none;fill-rule:nonzero;fill:rgb(100%,0%,0%);fill-opacity:0.2;" d="M 205.101562 527.453125 C 205.101562 531.953125 198.351562 531.953125 198.351562 527.453125 C 198.351562 522.953125 205.101562 522.953125 205.101562 527.453125 "/>
<path style=" stroke:none;fill-rule:nonzero;fill:rgb(100%,0%,0%);fill-opacity:0.2;" d="M 283.296875 429.273438 C 283.296875 433.773438 276.546875 433.773438 276.546875 429.273438 C 276.546875 424.773438 283.296875 424.773438 283.296875 429.273438 "/>
<path style=" stroke:none;fill-rule:nonzero;fill:rgb(100%,0%,0%);fill-opacity:0.2;" d="M 302.84375 331.089844 C 302.84375 335.589844 296.09375 335.589844 296.09375 331.089844 C 296.09375 326.589844 302.84375 326.589844 302.84375 331.089844 "/>
<path style=" stroke:none;fill-rule:nonzero;fill:rgb(100%,0%,0%);fill-opacity:0.2;" d="M 367.078125 232.910156 C 367.078125 237.410156 360.328125 237.410156 360.328125 232.910156 C 360.328125 228.410156 367.078125 228.410156 367.078125 232.910156 "/>
<path style=" stroke:none;fill-rule:nonzero;fill:rgb(100%,0%,0%);fill-opacity:0.2;" d="M 467.613281 134.726562 C 467.613281 139.226562 460.863281 139.226562 460.863281 134.726562 C 460.863281 130.226562 467.613281 130.226562 467.613281 134.726562 "/>
<path style=" stroke:none;fill-rule:nonzero;fill:rgb(100%,0%,0%);fill-opacity:0.2;" d="M 568.148438 36.546875 C 568.148438 41.046875 561.398438 41.046875 561.398438 36.546875 C 561.398438 32.046875 568.148438 32.046875 568.148438 36.546875 "/>
<path style="fill:none;stroke-width:1.5;stroke-linecap:butt;stroke-linejoin:miter;stroke:rgb(0%,0%,0%);stroke-opacity:1;stroke-miterlimit:10;" d="M 81 703.270833 L 456.942708 703.270833 " transform="matrix(0.75,0,0,0.75,0,0)"/>
<path style="fill:none;stroke-width:1.5;stroke-linecap:butt;stroke-linejoin:miter;stroke:rgb(0%,0%,0%);stroke-opacity:1;stroke-miterlimit:10;" d="M 185.260417 572.364583 L 561.197917 572.364583 " transform="matrix(0.75,0,0,0.75,0,0)"/>
<path style="fill:none;stroke-width:1.5;stroke-linecap:butt;stroke-linejoin:miter;stroke:rgb(0%,0%,0%);stroke-opacity:1;stroke-miterlimit:10;" d="M 211.322917 441.453125 L 587.265625 441.453125 " transform="matrix(0.75,0,0,0.75,0,0)"/>
<path style="fill:none;stroke-width:1.5;stroke-linecap:butt;stroke-linejoin:miter;stroke:rgb(0%,0%,0%);stroke-opacity:1;stroke-miterlimit:10;" d="M 296.963542 310.546875 L 672.90625 310.546875 " transform="matrix(0.75,0,0,0.75,0,0)"/>
<path style="fill:none;stroke-width:1.5;stroke-linecap:butt;stroke-linejoin:miter;stroke:rgb(0%,0%,0%);stroke-opacity:1;stroke-miterlimit:10;" d="M 431.010417 179.635417 L 806.953125 179.635417 " transform="matrix(0.75,0,0,0.75,0,0)"/>
<path style="fill:none;stroke-width:1.5;stroke-linecap:butt;stroke-linejoin:miter;stroke:rgb(0%,0%,0%);stroke-opacity:1;stroke-miterlimit:10;" d="M 565.057292 48.729167 L 941 48.729167 " transform="matrix(0.75,0,0,0.75,0,0)"/>
<path style="fill:none;stroke-width:1.5;stroke-linecap:butt;stroke-linejoin:miter;stroke:rgb(0%,0%,0%);stroke-opacity:1;stroke-miterlimit:10;" d="M 81 703.270833 L 81 703.270833 " transform="matrix(0.75,0,0,0.75,0,0)"/>
<path style="fill:none;stroke-width:1.5;stroke-linecap:butt;stroke-linejoin:miter;stroke:rgb(0%,0%,0%);stroke-opacity:1;stroke-miterlimit:10;" d="M 456.942708 703.270833 L 456.942708 703.270833 " transform="matrix(0.75,0,0,0.75,0,0)"/>
<path style="fill:none;stroke-width:1.5;stroke-linecap:butt;stroke-linejoin:miter;stroke:rgb(0%,0%,0%);stroke-opacity:1;stroke-miterlimit:10;" d="M 185.260417 572.364583 L 185.260417 572.364583 " transform="matrix(0.75,0,0,0.75,0,0)"/>
<path style="fill:none;stroke-width:1.5;stroke-linecap:butt;stroke-linejoin:miter;stroke:rgb(0%,0%,0%);stroke-opacity:1;stroke-miterlimit:10;" d="M 561.197917 572.364583 L 561.197917 572.364583 " transform="matrix(0.75,0,0,0.75,0,0)"/>
<path style="fill:none;stroke-width:1.5;stroke-linecap:butt;stroke-linejoin:miter;stroke:rgb(0%,0%,0%);stroke-opacity:1;stroke-miterlimit:10;" d="M 211.322917 441.453125 L 211.322917 441.453125 " transform="matrix(0.75,0,0,0.75,0,0)"/>
<path style="fill:none;stroke-width:1.5;stroke-linecap:butt;stroke-linejoin:miter;stroke:rgb(0%,0%,0%);stroke-opacity:1;stroke-miterlimit:10;" d="M 587.265625 441.453125 L 587.265625 441.453125 " transform="matrix(0.75,0,0,0.75,0,0)"/>
<path style="fill:none;stroke-width:1.5;stroke-linecap:butt;stroke-linejoin:miter;stroke:rgb(0%,0%,0%);stroke-opacity:1;stroke-miterlimit:10;" d="M 296.963542 310.546875 L 296.963542 310.546875 " transform="matrix(0.75,0,0,0.75,0,0)"/>
<path style="fill:none;stroke-width:1.5;stroke-linecap:butt;stroke-linejoin:miter;stroke:rgb(0%,0%,0%);stroke-opacity:1;stroke-miterlimit:10;" d="M 672.90625 310.546875 L 672.90625 310.546875 " transform="matrix(0.75,0,0,0.75,0,0)"/>
<path style="fill:none;stroke-width:1.5;stroke-linecap:butt;stroke-linejoin:miter;stroke:rgb(0%,0%,0%);stroke-opacity:1;stroke-miterlimit:10;" d="M 431.010417 179.635417 L 431.010417 179.635417 " transform="matrix(0.75,0,0,0.75,0,0)"/>
<path style="fill:none;stroke-width:1.5;stroke-linecap:butt;stroke-linejoin:miter;stroke:rgb(0%,0%,0%);stroke-opacity:1;stroke-miterlimit:10;" d="M 806.953125 179.635417 L 806.953125 179.635417 " transform="matrix(0.75,0,0,0.75,0,0)"/>
<path style="fill:none;stroke-width:1.5;stroke-linecap:butt;stroke-linejoin:miter;stroke:rgb(0%,0%,0%);stroke-opacity:1;stroke-miterlimit:10;" d="M 565.057292 48.729167 L 565.057292 48.729167 " transform="matrix(0.75,0,0,0.75,0,0)"/>
<path style="fill:none;stroke-width:1.5;stroke-linecap:butt;stroke-linejoin:miter;stroke:rgb(0%,0%,0%);stroke-opacity:1;stroke-miterlimit:10;" d="M 941 48.729167 L 941 48.729167 " transform="matrix(0.75,0,0,0.75,0,0)"/>
<path style="fill:none;stroke-width:1;stroke-linecap:butt;stroke-linejoin:miter;stroke:rgb(0%,0%,0%);stroke-opacity:1;stroke-miterlimit:10;" d="M 231.15625 736.5 L 231.15625 742.5 " transform="matrix(0.75,0,0,0.75,0,0)"/>
<path style="fill:none;stroke-width:1;stroke-linecap:butt;stroke-linejoin:miter;stroke:rgb(0%,0%,0%);stroke-opacity:1;stroke-miterlimit:10;" d="M 483.072917 736.5 L 483.072917 742.5 " transform="matrix(0.75,0,0,0.75,0,0)"/>
<path style="fill:none;stroke-width:1;stroke-linecap:butt;stroke-linejoin:miter;stroke:rgb(0%,0%,0%);stroke-opacity:1;stroke-miterlimit:10;" d="M 734.994792 736.5 L 734.994792 742.5 " transform="matrix(0.75,0,0,0.75,0,0)"/>
<path style="fill:none;stroke-width:1;stroke-linecap:butt;stroke-linejoin:miter;stroke:rgb(0%,0%,0%);stroke-opacity:1;stroke-miterlimit:10;" d="M 37.5 703.270833 L 31.5 703.270833 " transform="matrix(0.75,0,0,0.75,0,0)"/>
<path style="fill:none;stroke-width:1;stroke-linecap:butt;stroke-linejoin:miter;stroke:rgb(0%,0%,0%);stroke-opacity:1;stroke-miterlimit:10;" d="M 37.5 572.364583 L 31.5 572.364583 " transform="matrix(0.75,0,0,0.75,0,0)"/>
<path style="fill:none;stroke-width:1;stroke-linecap:butt;stroke-linejoin:miter;stroke:rgb(0%,0%,0%);stroke-opacity:1;stroke-miterlimit:10;" d="M 37.5 441.453125 L 31.5 441.453125 " transform="matrix(0.75,0,0,0.75,0,0)"/>
<path style="fill:none;stroke-width:1;stroke-linecap:butt;stroke-linejoin:miter;stroke:rgb(0%,0%,0%);stroke-opacity:1;stroke-miterlimit:10;" d="M 37.5 310.546875 L 31.5 310.546875 " transform="matrix(0.75,0,0,0.75,0,0)"/>
<path style="fill:none;stroke-width:1;stroke-linecap:butt;stroke-linejoin:miter;stroke:rgb(0%,0%,0%);stroke-opacity:1;stroke-miterlimit:10;" d="M 37.5 179.635417 L 31.5 179.635417 " transform="matrix(0.75,0,0,0.75,0,0)"/>
<path style="fill:none;stroke-width:1;stroke-linecap:butt;stroke-linejoin:miter;stroke:rgb(0%,0%,0%);stroke-opacity:1;stroke-miterlimit:10;" d="M 37.5 48.729167 L 31.5 48.729167 " transform="matrix(0.75,0,0,0.75,0,0)"/>
<path style="fill:none;stroke-width:1;stroke-linecap:butt;stroke-linejoin:miter;stroke:rgb(0%,0%,0%);stroke-opacity:1;stroke-miterlimit:10;" d="M 37.5 736 L 984.5 736 " transform="matrix(0.75,0,0,0.75,0,0)"/>
<path style="fill:none;stroke-width:1;stroke-linecap:butt;stroke-linejoin:miter;stroke:rgb(0%,0%,0%);stroke-opacity:1;stroke-miterlimit:10;" d="M 38 736.5 L 38 15.5 " transform="matrix(0.75,0,0,0.75,0,0)"/>
<path style="fill:none;stroke-width:1;stroke-linecap:butt;stroke-linejoin:miter;stroke:rgb(0%,0%,0%);stroke-opacity:1;stroke-miterlimit:10;" d="M 37.5 16 L 984.5 16 " transform="matrix(0.75,0,0,0.75,0,0)"/>
<path style="fill:none;stroke-width:1;stroke-linecap:butt;stroke-linejoin:miter;stroke:rgb(0%,0%,0%);stroke-opacity:1;stroke-miterlimit:10;" d="M 984 736.5 L 984 15.5 " transform="matrix(0.75,0,0,0.75,0,0)"/>
</g>
</svg>
