<?xml version="1.0" encoding="UTF-8"?>
<svg xmlns="http://www.w3.org/2000/svg" xmlns:xlink="http://www.w3.org/1999/xlink" width="600pt" height="450pt" viewBox="0 0 600 450" version="1.1">
<defs>
<g>
<symbol overflow="visible" id="81N5rPTN0-0">
<path style="stroke:none;" d="M 0.59375 2.125 L 0.59375 -8.46875 L 6.59375 -8.46875 L 6.59375 2.125 Z M 1.265625 1.453125 L 5.9375 1.453125 L 5.9375 -7.78125 L 1.265625 -7.78125 Z M 1.265625 1.453125 "/>
</symbol>
<symbol overflow="visible" id="81N5rPTN0-1">
<path style="stroke:none;" d="M 6.421875 -8.46875 L 6.421875 -7.3125 C 5.972656 -7.519531 5.546875 -7.675781 5.140625 -7.78125 C 4.742188 -7.894531 4.363281 -7.953125 4 -7.953125 C 3.351562 -7.953125 2.851562 -7.828125 2.5 -7.578125 C 2.15625 -7.328125 1.984375 -6.96875 1.984375 -6.5 C 1.984375 -6.113281 2.097656 -5.820312 2.328125 -5.625 C 2.554688 -5.425781 3 -5.269531 3.65625 -5.15625 L 4.359375 -5 C 5.242188 -4.832031 5.894531 -4.535156 6.3125 -4.109375 C 6.738281 -3.691406 6.953125 -3.128906 6.953125 -2.421875 C 6.953125 -1.566406 6.664062 -0.921875 6.09375 -0.484375 C 5.53125 -0.046875 4.695312 0.171875 3.59375 0.171875 C 3.1875 0.171875 2.75 0.125 2.28125 0.03125 C 1.8125 -0.0625 1.328125 -0.203125 0.828125 -0.390625 L 0.828125 -1.609375 C 1.304688 -1.335938 1.773438 -1.132812 2.234375 -1 C 2.703125 -0.863281 3.15625 -0.796875 3.59375 -0.796875 C 4.269531 -0.796875 4.789062 -0.925781 5.15625 -1.1875 C 5.53125 -1.457031 5.71875 -1.835938 5.71875 -2.328125 C 5.71875 -2.753906 5.582031 -3.085938 5.3125 -3.328125 C 5.050781 -3.578125 4.617188 -3.757812 4.015625 -3.875 L 3.296875 -4.015625 C 2.410156 -4.191406 1.769531 -4.46875 1.375 -4.84375 C 0.988281 -5.21875 0.796875 -5.738281 0.796875 -6.40625 C 0.796875 -7.1875 1.066406 -7.796875 1.609375 -8.234375 C 2.148438 -8.679688 2.898438 -8.90625 3.859375 -8.90625 C 4.273438 -8.90625 4.691406 -8.867188 5.109375 -8.796875 C 5.535156 -8.722656 5.972656 -8.613281 6.421875 -8.46875 Z M 6.421875 -8.46875 "/>
</symbol>
<symbol overflow="visible" id="81N5rPTN0-2">
<path style="stroke:none;" d="M 1.125 -6.5625 L 2.203125 -6.5625 L 2.203125 0 L 1.125 0 Z M 1.125 -9.125 L 2.203125 -9.125 L 2.203125 -7.75 L 1.125 -7.75 Z M 1.125 -9.125 "/>
</symbol>
<symbol overflow="visible" id="81N5rPTN0-3">
<path style="stroke:none;" d="M 1.125 -9.125 L 2.203125 -9.125 L 2.203125 0 L 1.125 0 Z M 1.125 -9.125 "/>
</symbol>
<symbol overflow="visible" id="81N5rPTN0-4">
<path style="stroke:none;" d="M 2.203125 -8.421875 L 2.203125 -6.5625 L 4.421875 -6.5625 L 4.421875 -5.71875 L 2.203125 -5.71875 L 2.203125 -2.15625 C 2.203125 -1.625 2.273438 -1.28125 2.421875 -1.125 C 2.566406 -0.976562 2.863281 -0.90625 3.3125 -0.90625 L 4.421875 -0.90625 L 4.421875 0 L 3.3125 0 C 2.476562 0 1.898438 -0.15625 1.578125 -0.46875 C 1.265625 -0.78125 1.109375 -1.34375 1.109375 -2.15625 L 1.109375 -5.71875 L 0.328125 -5.71875 L 0.328125 -6.5625 L 1.109375 -6.5625 L 1.109375 -8.421875 Z M 2.203125 -8.421875 "/>
</symbol>
<symbol overflow="visible" id="81N5rPTN0-5">
<path style="stroke:none;" d="M 5.453125 -5.5625 L 5.453125 -9.125 L 6.53125 -9.125 L 6.53125 0 L 5.453125 0 L 5.453125 -0.984375 C 5.222656 -0.597656 4.9375 -0.304688 4.59375 -0.109375 C 4.25 0.078125 3.832031 0.171875 3.34375 0.171875 C 2.550781 0.171875 1.90625 -0.144531 1.40625 -0.78125 C 0.90625 -1.414062 0.65625 -2.25 0.65625 -3.28125 C 0.65625 -4.3125 0.90625 -5.140625 1.40625 -5.765625 C 1.90625 -6.398438 2.550781 -6.71875 3.34375 -6.71875 C 3.832031 -6.71875 4.25 -6.625 4.59375 -6.4375 C 4.9375 -6.25 5.222656 -5.957031 5.453125 -5.5625 Z M 1.78125 -3.28125 C 1.78125 -2.488281 1.941406 -1.863281 2.265625 -1.40625 C 2.585938 -0.957031 3.035156 -0.734375 3.609375 -0.734375 C 4.179688 -0.734375 4.628906 -0.957031 4.953125 -1.40625 C 5.285156 -1.863281 5.453125 -2.488281 5.453125 -3.28125 C 5.453125 -4.070312 5.285156 -4.691406 4.953125 -5.140625 C 4.628906 -5.585938 4.179688 -5.8125 3.609375 -5.8125 C 3.035156 -5.8125 2.585938 -5.585938 2.265625 -5.140625 C 1.941406 -4.691406 1.78125 -4.070312 1.78125 -3.28125 Z M 1.78125 -3.28125 "/>
</symbol>
<symbol overflow="visible" id="81N5rPTN0-6">
<path style="stroke:none;" d=""/>
</symbol>
<symbol overflow="visible" id="81N5rPTN0-7">
<path style="stroke:none;" d="M 1.484375 -1 L 3.421875 -1 L 3.421875 -7.671875 L 1.3125 -7.25 L 1.3125 -8.328125 L 3.40625 -8.75 L 4.59375 -8.75 L 4.59375 -1 L 6.53125 -1 L 6.53125 0 L 1.484375 0 Z M 1.484375 -1 "/>
</symbol>
<symbol overflow="visible" id="81N5rPTN1-0">
<path style="stroke:none;" d="M 0.59375 2.125 L 0.59375 -8.46875 L 6.59375 -8.46875 L 6.59375 2.125 Z M 1.265625 1.453125 L 5.9375 1.453125 L 5.9375 -7.78125 L 1.265625 -7.78125 Z M 1.265625 1.453125 "/>
</symbol>
<symbol overflow="visible" id="81N5rPTN1-1">
<path style="stroke:none;" d="M 6.234375 -5.296875 C 6.503906 -5.785156 6.828125 -6.144531 7.203125 -6.375 C 7.578125 -6.601562 8.019531 -6.71875 8.53125 -6.71875 C 9.21875 -6.71875 9.742188 -6.476562 10.109375 -6 C 10.484375 -5.519531 10.671875 -4.84375 10.671875 -3.96875 L 10.671875 0 L 9.59375 0 L 9.59375 -3.921875 C 9.59375 -4.554688 9.476562 -5.023438 9.25 -5.328125 C 9.03125 -5.628906 8.691406 -5.78125 8.234375 -5.78125 C 7.671875 -5.78125 7.226562 -5.59375 6.90625 -5.21875 C 6.582031 -4.851562 6.421875 -4.347656 6.421875 -3.703125 L 6.421875 0 L 5.34375 0 L 5.34375 -3.921875 C 5.34375 -4.554688 5.226562 -5.023438 5 -5.328125 C 4.78125 -5.628906 4.4375 -5.78125 3.96875 -5.78125 C 3.414062 -5.78125 2.976562 -5.59375 2.65625 -5.21875 C 2.332031 -4.851562 2.171875 -4.347656 2.171875 -3.703125 L 2.171875 0 L 1.09375 0 L 1.09375 -6.5625 L 2.171875 -6.5625 L 2.171875 -5.546875 C 2.421875 -5.941406 2.71875 -6.234375 3.0625 -6.421875 C 3.40625 -6.617188 3.8125 -6.71875 4.28125 -6.71875 C 4.757812 -6.71875 5.164062 -6.597656 5.5 -6.359375 C 5.832031 -6.117188 6.078125 -5.765625 6.234375 -5.296875 Z M 6.234375 -5.296875 "/>
</symbol>
<symbol overflow="visible" id="81N5rPTN1-2">
<path style="stroke:none;" d="M 1.125 -9.125 L 2.203125 -9.125 L 2.203125 0 L 1.125 0 Z M 1.125 -9.125 "/>
</symbol>
<symbol overflow="visible" id="81N5rPTN1-3">
<path style="stroke:none;" d="M 5.453125 -5.5625 L 5.453125 -9.125 L 6.53125 -9.125 L 6.53125 0 L 5.453125 0 L 5.453125 -0.984375 C 5.222656 -0.597656 4.9375 -0.304688 4.59375 -0.109375 C 4.25 0.078125 3.832031 0.171875 3.34375 0.171875 C 2.550781 0.171875 1.90625 -0.144531 1.40625 -0.78125 C 0.90625 -1.414062 0.65625 -2.25 0.65625 -3.28125 C 0.65625 -4.3125 0.90625 -5.140625 1.40625 -5.765625 C 1.90625 -6.398438 2.550781 -6.71875 3.34375 -6.71875 C 3.832031 -6.71875 4.25 -6.625 4.59375 -6.4375 C 4.9375 -6.25 5.222656 -5.957031 5.453125 -5.5625 Z M 1.78125 -3.28125 C 1.78125 -2.488281 1.941406 -1.863281 2.265625 -1.40625 C 2.585938 -0.957031 3.035156 -0.734375 3.609375 -0.734375 C 4.179688 -0.734375 4.628906 -0.957031 4.953125 -1.40625 C 5.285156 -1.863281 5.453125 -2.488281 5.453125 -3.28125 C 5.453125 -4.070312 5.285156 -4.691406 4.953125 -5.140625 C 4.628906 -5.585938 4.179688 -5.8125 3.609375 -5.8125 C 3.035156 -5.8125 2.585938 -5.585938 2.265625 -5.140625 C 1.941406 -4.691406 1.78125 -4.070312 1.78125 -3.28125 Z M 1.78125 -3.28125 "/>
</symbol>
<symbol overflow="visible" id="81N5rPTN2-0">
<path style="stroke:none;" d="M 0.59375 2.125 L 0.59375 -8.46875 L 6.59375 -8.46875 L 6.59375 2.125 Z M 1.265625 1.453125 L 5.9375 1.453125 L 5.9375 -7.78125 L 1.265625 -7.78125 Z M 1.265625 1.453125 "/>
</symbol>
<symbol overflow="visible" id="81N5rPTN2-1">
<path style="stroke:none;" d="M 1.015625 -2.59375 L 1.015625 -6.5625 L 2.09375 -6.5625 L 2.09375 -2.625 C 2.09375 -2.007812 2.210938 -1.546875 2.453125 -1.234375 C 2.703125 -0.921875 3.066406 -0.765625 3.546875 -0.765625 C 4.128906 -0.765625 4.585938 -0.945312 4.921875 -1.3125 C 5.265625 -1.6875 5.4375 -2.195312 5.4375 -2.84375 L 5.4375 -6.5625 L 6.515625 -6.5625 L 6.515625 0 L 5.4375 0 L 5.4375 -1.015625 C 5.175781 -0.609375 4.875 -0.304688 4.53125 -0.109375 C 4.1875 0.078125 3.785156 0.171875 3.328125 0.171875 C 2.566406 0.171875 1.988281 -0.0625 1.59375 -0.53125 C 1.207031 -1 1.015625 -1.6875 1.015625 -2.59375 Z M 3.734375 -6.71875 Z M 3.734375 -6.71875 "/>
</symbol>
<symbol overflow="visible" id="81N5rPTN2-2">
<path style="stroke:none;" d="M 4.109375 -3.296875 C 3.242188 -3.296875 2.640625 -3.195312 2.296875 -3 C 1.960938 -2.800781 1.796875 -2.460938 1.796875 -1.984375 C 1.796875 -1.597656 1.921875 -1.289062 2.171875 -1.0625 C 2.429688 -0.84375 2.773438 -0.734375 3.203125 -0.734375 C 3.804688 -0.734375 4.285156 -0.941406 4.640625 -1.359375 C 5.003906 -1.785156 5.1875 -2.351562 5.1875 -3.0625 L 5.1875 -3.296875 Z M 6.265625 -3.75 L 6.265625 0 L 5.1875 0 L 5.1875 -1 C 4.9375 -0.601562 4.628906 -0.304688 4.265625 -0.109375 C 3.898438 0.078125 3.453125 0.171875 2.921875 0.171875 C 2.242188 0.171875 1.707031 -0.015625 1.3125 -0.390625 C 0.914062 -0.773438 0.71875 -1.28125 0.71875 -1.90625 C 0.71875 -2.644531 0.960938 -3.203125 1.453125 -3.578125 C 1.953125 -3.953125 2.691406 -4.140625 3.671875 -4.140625 L 5.1875 -4.140625 L 5.1875 -4.25 C 5.1875 -4.75 5.019531 -5.132812 4.6875 -5.40625 C 4.363281 -5.675781 3.910156 -5.8125 3.328125 -5.8125 C 2.953125 -5.8125 2.582031 -5.765625 2.21875 -5.671875 C 1.863281 -5.578125 1.523438 -5.441406 1.203125 -5.265625 L 1.203125 -6.265625 C 1.597656 -6.421875 1.976562 -6.535156 2.34375 -6.609375 C 2.71875 -6.679688 3.082031 -6.71875 3.4375 -6.71875 C 4.382812 -6.71875 5.09375 -6.472656 5.5625 -5.984375 C 6.03125 -5.492188 6.265625 -4.75 6.265625 -3.75 Z M 6.265625 -3.75 "/>
</symbol>
<symbol overflow="visible" id="81N5rPTN2-3">
<path style="stroke:none;" d="M 6.75 -3.546875 L 6.75 -3.03125 L 1.78125 -3.03125 C 1.832031 -2.28125 2.054688 -1.710938 2.453125 -1.328125 C 2.859375 -0.941406 3.414062 -0.75 4.125 -0.75 C 4.539062 -0.75 4.941406 -0.796875 5.328125 -0.890625 C 5.722656 -0.992188 6.113281 -1.148438 6.5 -1.359375 L 6.5 -0.328125 C 6.101562 -0.171875 5.703125 -0.0507812 5.296875 0.03125 C 4.890625 0.125 4.476562 0.171875 4.0625 0.171875 C 3.019531 0.171875 2.191406 -0.128906 1.578125 -0.734375 C 0.960938 -1.347656 0.65625 -2.175781 0.65625 -3.21875 C 0.65625 -4.289062 0.945312 -5.140625 1.53125 -5.765625 C 2.113281 -6.398438 2.894531 -6.71875 3.875 -6.71875 C 4.757812 -6.71875 5.457031 -6.429688 5.96875 -5.859375 C 6.488281 -5.296875 6.75 -4.523438 6.75 -3.546875 Z M 5.671875 -3.875 C 5.660156 -4.457031 5.492188 -4.925781 5.171875 -5.28125 C 4.847656 -5.632812 4.421875 -5.8125 3.890625 -5.8125 C 3.285156 -5.8125 2.800781 -5.640625 2.4375 -5.296875 C 2.082031 -4.953125 1.878906 -4.472656 1.828125 -3.859375 Z M 5.671875 -3.875 "/>
</symbol>
<symbol overflow="visible" id="81N5rPTN2-4">
<path style="stroke:none;" d="M 3.859375 0.609375 C 3.554688 1.390625 3.257812 1.898438 2.96875 2.140625 C 2.675781 2.378906 2.289062 2.5 1.8125 2.5 L 0.953125 2.5 L 0.953125 1.59375 L 1.578125 1.59375 C 1.878906 1.59375 2.109375 1.519531 2.265625 1.375 C 2.429688 1.238281 2.613281 0.910156 2.8125 0.390625 L 3.015625 -0.109375 L 0.359375 -6.5625 L 1.5 -6.5625 L 3.546875 -1.4375 L 5.609375 -6.5625 L 6.75 -6.5625 Z M 3.859375 0.609375 "/>
</symbol>
<symbol overflow="visible" id="81N5rPTN2-5">
<path style="stroke:none;" d="M 1.296875 -8.75 L 5.9375 -8.75 L 5.9375 -7.75 L 2.375 -7.75 L 2.375 -5.609375 C 2.550781 -5.671875 2.722656 -5.710938 2.890625 -5.734375 C 3.066406 -5.765625 3.238281 -5.78125 3.40625 -5.78125 C 4.382812 -5.78125 5.160156 -5.507812 5.734375 -4.96875 C 6.304688 -4.4375 6.59375 -3.71875 6.59375 -2.8125 C 6.59375 -1.863281 6.296875 -1.128906 5.703125 -0.609375 C 5.117188 -0.0859375 4.296875 0.171875 3.234375 0.171875 C 2.859375 0.171875 2.476562 0.140625 2.09375 0.078125 C 1.71875 0.015625 1.328125 -0.078125 0.921875 -0.203125 L 0.921875 -1.390625 C 1.273438 -1.203125 1.640625 -1.0625 2.015625 -0.96875 C 2.390625 -0.875 2.785156 -0.828125 3.203125 -0.828125 C 3.878906 -0.828125 4.414062 -1.003906 4.8125 -1.359375 C 5.207031 -1.710938 5.40625 -2.195312 5.40625 -2.8125 C 5.40625 -3.414062 5.207031 -3.894531 4.8125 -4.25 C 4.414062 -4.601562 3.878906 -4.78125 3.203125 -4.78125 C 2.890625 -4.78125 2.570312 -4.742188 2.25 -4.671875 C 1.9375 -4.609375 1.617188 -4.503906 1.296875 -4.359375 Z M 1.296875 -8.75 "/>
</symbol>
<symbol overflow="visible" id="81N5rPTN3-0">
<path style="stroke:none;" d="M 0.59375 2.125 L 0.59375 -8.46875 L 6.59375 -8.46875 L 6.59375 2.125 Z M 1.265625 1.453125 L 5.9375 1.453125 L 5.9375 -7.78125 L 1.265625 -7.78125 Z M 1.265625 1.453125 "/>
</symbol>
<symbol overflow="visible" id="81N5rPTN3-1">
<path style="stroke:none;" d="M 3.8125 -7.96875 C 3.207031 -7.96875 2.75 -7.664062 2.4375 -7.0625 C 2.132812 -6.46875 1.984375 -5.566406 1.984375 -4.359375 C 1.984375 -3.160156 2.132812 -2.257812 2.4375 -1.65625 C 2.75 -1.0625 3.207031 -0.765625 3.8125 -0.765625 C 4.425781 -0.765625 4.882812 -1.0625 5.1875 -1.65625 C 5.5 -2.257812 5.65625 -3.160156 5.65625 -4.359375 C 5.65625 -5.566406 5.5 -6.46875 5.1875 -7.0625 C 4.882812 -7.664062 4.425781 -7.96875 3.8125 -7.96875 Z M 3.8125 -8.90625 C 4.789062 -8.90625 5.539062 -8.515625 6.0625 -7.734375 C 6.582031 -6.960938 6.84375 -5.835938 6.84375 -4.359375 C 6.84375 -2.890625 6.582031 -1.765625 6.0625 -0.984375 C 5.539062 -0.210938 4.789062 0.171875 3.8125 0.171875 C 2.832031 0.171875 2.082031 -0.210938 1.5625 -0.984375 C 1.050781 -1.765625 0.796875 -2.890625 0.796875 -4.359375 C 0.796875 -5.835938 1.050781 -6.960938 1.5625 -7.734375 C 2.082031 -8.515625 2.832031 -8.90625 3.8125 -8.90625 Z M 3.8125 -8.90625 "/>
</symbol>
<symbol overflow="visible" id="81N5rPTN3-2">
<path style="stroke:none;" d="M 1.171875 -8.75 L 6.203125 -8.75 L 6.203125 -7.75 L 2.359375 -7.75 L 2.359375 -5.171875 L 5.828125 -5.171875 L 5.828125 -4.171875 L 2.359375 -4.171875 L 2.359375 0 L 1.171875 0 Z M 1.171875 -8.75 "/>
</symbol>
<symbol overflow="visible" id="81N5rPTN4-0">
<path style="stroke:none;" d="M 0.59375 2.125 L 0.59375 -8.46875 L 6.59375 -8.46875 L 6.59375 2.125 Z M 1.265625 1.453125 L 5.9375 1.453125 L 5.9375 -7.78125 L 1.265625 -7.78125 Z M 1.265625 1.453125 "/>
</symbol>
<symbol overflow="visible" id="81N5rPTN4-1">
<path style="stroke:none;" d="M 3.8125 -7.96875 C 3.207031 -7.96875 2.75 -7.664062 2.4375 -7.0625 C 2.132812 -6.46875 1.984375 -5.566406 1.984375 -4.359375 C 1.984375 -3.160156 2.132812 -2.257812 2.4375 -1.65625 C 2.75 -1.0625 3.207031 -0.765625 3.8125 -0.765625 C 4.425781 -0.765625 4.882812 -1.0625 5.1875 -1.65625 C 5.5 -2.257812 5.65625 -3.160156 5.65625 -4.359375 C 5.65625 -5.566406 5.5 -6.46875 5.1875 -7.0625 C 4.882812 -7.664062 4.425781 -7.96875 3.8125 -7.96875 Z M 3.8125 -8.90625 C 4.789062 -8.90625 5.539062 -8.515625 6.0625 -7.734375 C 6.582031 -6.960938 6.84375 -5.835938 6.84375 -4.359375 C 6.84375 -2.890625 6.582031 -1.765625 6.0625 -0.984375 C 5.539062 -0.210938 4.789062 0.171875 3.8125 0.171875 C 2.832031 0.171875 2.082031 -0.210938 1.5625 -0.984375 C 1.050781 -1.765625 0.796875 -2.890625 0.796875 -4.359375 C 0.796875 -5.835938 1.050781 -6.960938 1.5625 -7.734375 C 2.082031 -8.515625 2.832031 -8.90625 3.8125 -8.90625 Z M 3.8125 -8.90625 "/>
</symbol>
<symbol overflow="visible" id="81N5rPTN5-0">
<path style="stroke:none;" d="M 2.125 -0.59375 L -8.46875 -0.59375 L -8.46875 -6.59375 L 2.125 -6.59375 Z M 1.453125 -1.265625 L 1.453125 -5.9375 L -7.78125 -5.9375 L -7.78125 -1.265625 Z M 1.453125 -1.265625 "/>
</symbol>
<symbol overflow="visible" id="81N5rPTN5-1">
<path style="stroke:none;" d="M -4.171875 -2.359375 L -0.96875 -2.359375 L -0.96875 -4.265625 C -0.96875 -4.898438 -1.097656 -5.367188 -1.359375 -5.671875 C -1.628906 -5.984375 -2.035156 -6.140625 -2.578125 -6.140625 C -3.128906 -6.140625 -3.53125 -5.984375 -3.78125 -5.671875 C -4.039062 -5.367188 -4.171875 -4.898438 -4.171875 -4.265625 Z M -7.78125 -2.359375 L -5.140625 -2.359375 L -5.140625 -4.109375 C -5.140625 -4.691406 -5.25 -5.125 -5.46875 -5.40625 C -5.6875 -5.6875 -6.015625 -5.828125 -6.453125 -5.828125 C -6.898438 -5.828125 -7.234375 -5.6875 -7.453125 -5.40625 C -7.671875 -5.125 -7.78125 -4.691406 -7.78125 -4.109375 Z M -8.75 -1.171875 L -8.75 -4.203125 C -8.75 -5.109375 -8.5625 -5.800781 -8.1875 -6.28125 C -7.8125 -6.769531 -7.28125 -7.015625 -6.59375 -7.015625 C -6.050781 -7.015625 -5.617188 -6.890625 -5.296875 -6.640625 C -4.984375 -6.390625 -4.789062 -6.023438 -4.71875 -5.546875 C -4.59375 -6.128906 -4.332031 -6.582031 -3.9375 -6.90625 C -3.539062 -7.226562 -3.046875 -7.390625 -2.453125 -7.390625 C -1.671875 -7.390625 -1.066406 -7.125 -0.640625 -6.59375 C -0.210938 -6.0625 0 -5.300781 0 -4.3125 L 0 -1.171875 Z M -8.75 -1.171875 "/>
</symbol>
<symbol overflow="visible" id="81N5rPTN5-2">
<path style="stroke:none;" d="M -3.296875 -4.109375 C -3.296875 -3.242188 -3.195312 -2.640625 -3 -2.296875 C -2.800781 -1.960938 -2.460938 -1.796875 -1.984375 -1.796875 C -1.597656 -1.796875 -1.289062 -1.921875 -1.0625 -2.171875 C -0.84375 -2.429688 -0.734375 -2.773438 -0.734375 -3.203125 C -0.734375 -3.804688 -0.941406 -4.285156 -1.359375 -4.640625 C -1.785156 -5.003906 -2.351562 -5.1875 -3.0625 -5.1875 L -3.296875 -5.1875 Z M -3.75 -6.265625 L 0 -6.265625 L 0 -5.1875 L -1 -5.1875 C -0.601562 -4.9375 -0.304688 -4.628906 -0.109375 -4.265625 C 0.078125 -3.898438 0.171875 -3.453125 0.171875 -2.921875 C 0.171875 -2.242188 -0.015625 -1.707031 -0.390625 -1.3125 C -0.773438 -0.914062 -1.28125 -0.71875 -1.90625 -0.71875 C -2.644531 -0.71875 -3.203125 -0.960938 -3.578125 -1.453125 C -3.953125 -1.953125 -4.140625 -2.691406 -4.140625 -3.671875 L -4.140625 -5.1875 L -4.25 -5.1875 C -4.75 -5.1875 -5.132812 -5.019531 -5.40625 -4.6875 C -5.675781 -4.363281 -5.8125 -3.910156 -5.8125 -3.328125 C -5.8125 -2.953125 -5.765625 -2.582031 -5.671875 -2.21875 C -5.578125 -1.863281 -5.441406 -1.523438 -5.265625 -1.203125 L -6.265625 -1.203125 C -6.421875 -1.597656 -6.535156 -1.976562 -6.609375 -2.34375 C -6.679688 -2.71875 -6.71875 -3.082031 -6.71875 -3.4375 C -6.71875 -4.382812 -6.472656 -5.09375 -5.984375 -5.5625 C -5.492188 -6.03125 -4.75 -6.265625 -3.75 -6.265625 Z M -3.75 -6.265625 "/>
</symbol>
<symbol overflow="visible" id="81N5rPTN5-3">
<path style="stroke:none;" d="M -8.421875 -2.203125 L -6.5625 -2.203125 L -6.5625 -4.421875 L -5.71875 -4.421875 L -5.71875 -2.203125 L -2.15625 -2.203125 C -1.625 -2.203125 -1.28125 -2.273438 -1.125 -2.421875 C -0.976562 -2.566406 -0.90625 -2.863281 -0.90625 -3.3125 L -0.90625 -4.421875 L 0 -4.421875 L 0 -3.3125 C 0 -2.476562 -0.15625 -1.898438 -0.46875 -1.578125 C -0.78125 -1.265625 -1.34375 -1.109375 -2.15625 -1.109375 L -5.71875 -1.109375 L -5.71875 -0.328125 L -6.5625 -0.328125 L -6.5625 -1.109375 L -8.421875 -1.109375 Z M -8.421875 -2.203125 "/>
</symbol>
<symbol overflow="visible" id="81N5rPTN5-4">
<path style="stroke:none;" d="M -3.96875 -6.59375 L 0 -6.59375 L 0 -5.515625 L -3.921875 -5.515625 C -4.546875 -5.515625 -5.007812 -5.390625 -5.3125 -5.140625 C -5.625 -4.898438 -5.78125 -4.539062 -5.78125 -4.0625 C -5.78125 -3.476562 -5.59375 -3.015625 -5.21875 -2.671875 C -4.851562 -2.335938 -4.347656 -2.171875 -3.703125 -2.171875 L 0 -2.171875 L 0 -1.09375 L -9.125 -1.09375 L -9.125 -2.171875 L -5.546875 -2.171875 C -5.941406 -2.429688 -6.234375 -2.734375 -6.421875 -3.078125 C -6.617188 -3.429688 -6.71875 -3.835938 -6.71875 -4.296875 C -6.71875 -5.046875 -6.484375 -5.613281 -6.015625 -6 C -5.554688 -6.394531 -4.875 -6.59375 -3.96875 -6.59375 Z M -3.96875 -6.59375 "/>
</symbol>
<symbol overflow="visible" id="81N5rPTN6-0">
<path style="stroke:none;" d="M 2.125 -0.59375 L -8.46875 -0.59375 L -8.46875 -6.59375 L 2.125 -6.59375 Z M 1.453125 -1.265625 L 1.453125 -5.9375 L -7.78125 -5.9375 L -7.78125 -1.265625 Z M 1.453125 -1.265625 "/>
</symbol>
<symbol overflow="visible" id="81N5rPTN6-1">
<path style="stroke:none;" d="M -6.3125 -5.859375 L -5.296875 -5.859375 C -5.472656 -5.546875 -5.601562 -5.238281 -5.6875 -4.9375 C -5.769531 -4.632812 -5.8125 -4.328125 -5.8125 -4.015625 C -5.8125 -3.304688 -5.585938 -2.757812 -5.140625 -2.375 C -4.703125 -1.988281 -4.082031 -1.796875 -3.28125 -1.796875 C -2.476562 -1.796875 -1.851562 -1.988281 -1.40625 -2.375 C -0.96875 -2.757812 -0.75 -3.304688 -0.75 -4.015625 C -0.75 -4.328125 -0.789062 -4.632812 -0.875 -4.9375 C -0.957031 -5.238281 -1.082031 -5.546875 -1.25 -5.859375 L -0.25 -5.859375 C -0.113281 -5.554688 -0.0078125 -5.242188 0.0625 -4.921875 C 0.132812 -4.597656 0.171875 -4.253906 0.171875 -3.890625 C 0.171875 -2.898438 -0.132812 -2.113281 -0.75 -1.53125 C -1.375 -0.945312 -2.21875 -0.65625 -3.28125 -0.65625 C -4.34375 -0.65625 -5.179688 -0.945312 -5.796875 -1.53125 C -6.410156 -2.125 -6.71875 -2.9375 -6.71875 -3.96875 C -6.71875 -4.289062 -6.679688 -4.609375 -6.609375 -4.921875 C -6.546875 -5.242188 -6.445312 -5.554688 -6.3125 -5.859375 Z M -6.3125 -5.859375 "/>
</symbol>
<symbol overflow="visible" id="81N5rPTN7-0">
<path style="stroke:none;" d="M 0.59375 2.125 L 0.59375 -8.46875 L 6.59375 -8.46875 L 6.59375 2.125 Z M 1.265625 1.453125 L 5.9375 1.453125 L 5.9375 -7.78125 L 1.265625 -7.78125 Z M 1.265625 1.453125 "/>
</symbol>
<symbol overflow="visible" id="81N5rPTN7-1">
<path style="stroke:none;" d="M 2.359375 -4.171875 L 2.359375 -0.96875 L 4.265625 -0.96875 C 4.898438 -0.96875 5.367188 -1.097656 5.671875 -1.359375 C 5.984375 -1.628906 6.140625 -2.035156 6.140625 -2.578125 C 6.140625 -3.128906 5.984375 -3.53125 5.671875 -3.78125 C 5.367188 -4.039062 4.898438 -4.171875 4.265625 -4.171875 Z M 2.359375 -7.78125 L 2.359375 -5.140625 L 4.109375 -5.140625 C 4.691406 -5.140625 5.125 -5.25 5.40625 -5.46875 C 5.6875 -5.6875 5.828125 -6.015625 5.828125 -6.453125 C 5.828125 -6.898438 5.6875 -7.234375 5.40625 -7.453125 C 5.125 -7.671875 4.691406 -7.78125 4.109375 -7.78125 Z M 1.171875 -8.75 L 4.203125 -8.75 C 5.109375 -8.75 5.800781 -8.5625 6.28125 -8.1875 C 6.769531 -7.8125 7.015625 -7.28125 7.015625 -6.59375 C 7.015625 -6.050781 6.890625 -5.617188 6.640625 -5.296875 C 6.390625 -4.984375 6.023438 -4.789062 5.546875 -4.71875 C 6.128906 -4.59375 6.582031 -4.332031 6.90625 -3.9375 C 7.226562 -3.539062 7.390625 -3.046875 7.390625 -2.453125 C 7.390625 -1.671875 7.125 -1.066406 6.59375 -0.640625 C 6.0625 -0.210938 5.300781 0 4.3125 0 L 1.171875 0 Z M 1.171875 -8.75 "/>
</symbol>
<symbol overflow="visible" id="81N5rPTN7-2">
<path style="stroke:none;" d="M 2.359375 -7.78125 L 2.359375 -0.96875 L 3.796875 -0.96875 C 5.003906 -0.96875 5.882812 -1.238281 6.4375 -1.78125 C 7 -2.332031 7.28125 -3.203125 7.28125 -4.390625 C 7.28125 -5.554688 7 -6.410156 6.4375 -6.953125 C 5.882812 -7.503906 5.003906 -7.78125 3.796875 -7.78125 Z M 1.171875 -8.75 L 3.609375 -8.75 C 5.304688 -8.75 6.550781 -8.394531 7.34375 -7.6875 C 8.132812 -6.988281 8.53125 -5.890625 8.53125 -4.390625 C 8.53125 -2.878906 8.128906 -1.769531 7.328125 -1.0625 C 6.535156 -0.351562 5.296875 0 3.609375 0 L 1.171875 0 Z M 1.171875 -8.75 "/>
</symbol>
<symbol overflow="visible" id="81N5rPTN8-0">
<path style="stroke:none;" d="M 0.59375 2.125 L 0.59375 -8.46875 L 6.59375 -8.46875 L 6.59375 2.125 Z M 1.265625 1.453125 L 5.9375 1.453125 L 5.9375 -7.78125 L 1.265625 -7.78125 Z M 1.265625 1.453125 "/>
</symbol>
<symbol overflow="visible" id="81N5rPTN8-1">
<path style="stroke:none;" d="M 1.171875 -8.75 L 6.703125 -8.75 L 6.703125 -7.75 L 2.359375 -7.75 L 2.359375 -5.15625 L 6.53125 -5.15625 L 6.53125 -4.171875 L 2.359375 -4.171875 L 2.359375 -1 L 6.8125 -1 L 6.8125 0 L 1.171875 0 Z M 1.171875 -8.75 "/>
</symbol>
<symbol overflow="visible" id="81N5rPTN8-2">
<path style="stroke:none;" d="M 7.734375 -8.078125 L 7.734375 -6.828125 C 7.328125 -7.203125 6.898438 -7.476562 6.453125 -7.65625 C 6.003906 -7.84375 5.523438 -7.9375 5.015625 -7.9375 C 4.015625 -7.9375 3.25 -7.628906 2.71875 -7.015625 C 2.1875 -6.398438 1.921875 -5.515625 1.921875 -4.359375 C 1.921875 -3.210938 2.1875 -2.332031 2.71875 -1.71875 C 3.25 -1.101562 4.015625 -0.796875 5.015625 -0.796875 C 5.523438 -0.796875 6.003906 -0.890625 6.453125 -1.078125 C 6.898438 -1.265625 7.328125 -1.539062 7.734375 -1.90625 L 7.734375 -0.671875 C 7.316406 -0.390625 6.875 -0.175781 6.40625 -0.03125 C 5.945312 0.101562 5.460938 0.171875 4.953125 0.171875 C 3.617188 0.171875 2.570312 -0.234375 1.8125 -1.046875 C 1.050781 -1.859375 0.671875 -2.960938 0.671875 -4.359375 C 0.671875 -5.765625 1.050781 -6.875 1.8125 -7.6875 C 2.570312 -8.5 3.617188 -8.90625 4.953125 -8.90625 C 5.472656 -8.90625 5.960938 -8.832031 6.421875 -8.6875 C 6.890625 -8.550781 7.328125 -8.347656 7.734375 -8.078125 Z M 7.734375 -8.078125 "/>
</symbol>
<symbol overflow="visible" id="81N5rPTN9-0">
<path style="stroke:none;" d="M 0.59375 2.125 L 0.59375 -8.46875 L 6.59375 -8.46875 L 6.59375 2.125 Z M 1.265625 1.453125 L 5.9375 1.453125 L 5.9375 -7.78125 L 1.265625 -7.78125 Z M 1.265625 1.453125 "/>
</symbol>
<symbol overflow="visible" id="81N5rPTN9-1">
<path style="stroke:none;" d="M 4.109375 -7.578125 L 2.5 -3.234375 L 5.71875 -3.234375 Z M 3.4375 -8.75 L 4.78125 -8.75 L 8.109375 0 L 6.875 0 L 6.078125 -2.25 L 2.140625 -2.25 L 1.34375 0 L 0.09375 0 Z M 3.4375 -8.75 "/>
</symbol>
</g>
</defs>
<g id="surface1">
<rect x="0" y="0" width="600" height="450" style="fill:rgb(100%,100%,100%);fill-opacity:1;stroke:none;"/>
<path style=" stroke:none;fill-rule:nonzero;fill:rgb(100%,100%,100%);fill-opacity:1;" d="M 46.5 402 L 588 402 L 588 12 L 46.5 12 Z M 46.5 402 "/>
<path style="fill:none;stroke-width:1;stroke-linecap:butt;stroke-linejoin:miter;stroke:rgb(0%,0%,0%);stroke-opacity:0.12;stroke-miterlimit:10;" d="M 135.6875 536 L 135.6875 16 " transform="matrix(0.75,0,0,0.75,0,0)"/>
<path style="fill:none;stroke-width:1;stroke-linecap:butt;stroke-linejoin:miter;stroke:rgb(0%,0%,0%);stroke-opacity:0.12;stroke-miterlimit:10;" d="M 364.765625 536 L 364.765625 16 " transform="matrix(0.75,0,0,0.75,0,0)"/>
<path style="fill:none;stroke-width:1;stroke-linecap:butt;stroke-linejoin:miter;stroke:rgb(0%,0%,0%);stroke-opacity:0.12;stroke-miterlimit:10;" d="M 593.848958 536 L 593.848958 16 " transform="matrix(0.75,0,0,0.75,0,0)"/>
<path style="fill:none;stroke-width:1;stroke-linecap:butt;stroke-linejoin:miter;stroke:rgb(0%,0%,0%);stroke-opacity:0.12;stroke-miterlimit:10;" d="M 62 512.364583 L 784 512.364583 " transform="matrix(0.75,0,0,0.75,0,0)"/>
<path style="fill:none;stroke-width:1;stroke-linecap:butt;stroke-linejoin:miter;stroke:rgb(0%,0%,0%);stroke-opacity:0.12;stroke-miterlimit:10;" d="M 62 417.817708 L 784 417.817708 " transform="matrix(0.75,0,0,0.75,0,0)"/>
<path style="fill:none;stroke-width:1;stroke-linecap:butt;stroke-linejoin:miter;stroke:rgb(0%,0%,0%);stroke-opacity:0.12;stroke-miterlimit:10;" d="M 62 323.270833 L 784 323.270833 " transform="matrix(0.75,0,0,0.75,0,0)"/>
<path style="fill:none;stroke-width:1;stroke-linecap:butt;stroke-linejoin:miter;stroke:rgb(0%,0%,0%);stroke-opacity:0.12;stroke-miterlimit:10;" d="M 62 228.729167 L 784 228.729167 " transform="matrix(0.75,0,0,0.75,0,0)"/>
<path style="fill:none;stroke-width:1;stroke-linecap:butt;stroke-linejoin:miter;stroke:rgb(0%,0%,0%);stroke-opacity:0.12;stroke-miterlimit:10;" d="M 62 134.182292 L 784 134.182292 " transform="matrix(0.75,0,0,0.75,0,0)"/>
<path style="fill:none;stroke-width:1;stroke-linecap:butt;stroke-linejoin:miter;stroke:rgb(0%,0%,0%);stroke-opacity:0.12;stroke-miterlimit:10;" d="M 62 39.635417 L 784 39.635417 " transform="matrix(0.75,0,0,0.75,0,0)"/>
<g style="fill:rgb(0%,0%,0%);fill-opacity:1;">
  <use xlink:href="#81N5rPTN0-1" x="271.117188" y="436.109375"/>
</g>
<g style="fill:rgb(0%,0%,0%);fill-opacity:1;">
  <use xlink:href="#81N5rPTN0-2" x="278.734375" y="436.109375"/>
</g>
<g style="fill:rgb(0%,0%,0%);fill-opacity:1;">
  <use xlink:href="#81N5rPTN1-1" x="282.070312" y="436.109375"/>
</g>
<g style="fill:rgb(0%,0%,0%);fill-opacity:1;">
  <use xlink:href="#81N5rPTN2-1" x="293.757812" y="436.109375"/>
</g>
<g style="fill:rgb(0%,0%,0%);fill-opacity:1;">
  <use xlink:href="#81N5rPTN0-3" x="301.367188" y="436.109375"/>
</g>
<g style="fill:rgb(0%,0%,0%);fill-opacity:1;">
  <use xlink:href="#81N5rPTN2-2" x="304.699219" y="436.109375"/>
</g>
<g style="fill:rgb(0%,0%,0%);fill-opacity:1;">
  <use xlink:href="#81N5rPTN0-4" x="312.054688" y="436.109375"/>
</g>
<g style="fill:rgb(0%,0%,0%);fill-opacity:1;">
  <use xlink:href="#81N5rPTN2-3" x="316.757812" y="436.109375"/>
</g>
<g style="fill:rgb(0%,0%,0%);fill-opacity:1;">
  <use xlink:href="#81N5rPTN0-5" x="324.140625" y="436.109375"/>
</g>
<g style="fill:rgb(0%,0%,0%);fill-opacity:1;">
  <use xlink:href="#81N5rPTN0-6" x="331.757812" y="436.109375"/>
</g>
<g style="fill:rgb(0%,0%,0%);fill-opacity:1;">
  <use xlink:href="#81N5rPTN2-4" x="335.570312" y="436.109375"/>
</g>
<g style="fill:rgb(0%,0%,0%);fill-opacity:1;">
  <use xlink:href="#81N5rPTN0-2" x="342.671875" y="436.109375"/>
</g>
<g style="fill:rgb(0%,0%,0%);fill-opacity:1;">
  <use xlink:href="#81N5rPTN2-3" x="346.007812" y="436.109375"/>
</g>
<g style="fill:rgb(0%,0%,0%);fill-opacity:1;">
  <use xlink:href="#81N5rPTN1-2" x="353.390625" y="436.109375"/>
</g>
<g style="fill:rgb(0%,0%,0%);fill-opacity:1;">
  <use xlink:href="#81N5rPTN1-3" x="356.726562" y="436.109375"/>
</g>
<g style="fill:rgb(0%,0%,0%);fill-opacity:1;">
  <use xlink:href="#81N5rPTN3-1" x="98.347656" y="419.890625"/>
</g>
<g style="fill:rgb(0%,0%,0%);fill-opacity:1;">
  <use xlink:href="#81N5rPTN2-5" x="270.28125" y="419.890625"/>
</g>
<g style="fill:rgb(0%,0%,0%);fill-opacity:1;">
  <use xlink:href="#81N5rPTN0-7" x="437.886719" y="419.890625"/>
</g>
<g style="fill:rgb(0%,0%,0%);fill-opacity:1;">
  <use xlink:href="#81N5rPTN4-1" x="445.519531" y="419.890625"/>
</g>
<g style="fill:rgb(0%,0%,0%);fill-opacity:1;">
  <use xlink:href="#81N5rPTN5-1" x="22.570312" y="223.78125"/>
</g>
<g style="fill:rgb(0%,0%,0%);fill-opacity:1;">
  <use xlink:href="#81N5rPTN5-2" x="22.570312" y="215.546875"/>
</g>
<g style="fill:rgb(0%,0%,0%);fill-opacity:1;">
  <use xlink:href="#81N5rPTN5-3" x="22.570312" y="208.195312"/>
</g>
<g style="fill:rgb(0%,0%,0%);fill-opacity:1;">
  <use xlink:href="#81N5rPTN6-1" x="22.570312" y="203.492187"/>
</g>
<g style="fill:rgb(0%,0%,0%);fill-opacity:1;">
  <use xlink:href="#81N5rPTN5-4" x="22.570312" y="196.890625"/>
</g>
<g style="fill:rgb(0%,0%,0%);fill-opacity:1;">
  <use xlink:href="#81N5rPTN3-2" x="33.222656" y="388.425781"/>
</g>
<g style="fill:rgb(0%,0%,0%);fill-opacity:1;">
  <use xlink:href="#81N5rPTN7-1" x="32.046875" y="317.519531"/>
</g>
<g style="fill:rgb(0%,0%,0%);fill-opacity:1;">
  <use xlink:href="#81N5rPTN7-2" x="30.898438" y="246.609375"/>
</g>
<g style="fill:rgb(0%,0%,0%);fill-opacity:1;">
  <use xlink:href="#81N5rPTN8-1" x="32.613281" y="175.699219"/>
</g>
<g style="fill:rgb(0%,0%,0%);fill-opacity:1;">
  <use xlink:href="#81N5rPTN9-1" x="30.234375" y="104.789062"/>
</g>
<g style="fill:rgb(0%,0%,0%);fill-opacity:1;">
  <use xlink:href="#81N5rPTN8-2" x="31.195312" y="33.882812"/>
</g>
<path style=" stroke:none;fill-rule:nonzero;fill:rgb(0%,0%,0%);fill-opacity:1;" d="M 351.082031 98.113281 C 350.101562 98.675781 349.613281 99.519531 349.613281 100.644531 C 349.613281 101.761719 350.101562 102.597656 351.082031 103.160156 C 351.558594 103.441406 352.042969 103.582031 352.535156 103.582031 C 353.023438 103.582031 353.511719 103.441406 354.003906 103.160156 C 354.972656 102.597656 355.457031 101.761719 355.457031 100.644531 C 355.457031 99.519531 354.972656 98.675781 354.003906 98.113281 C 353.511719 97.832031 353.023438 97.691406 352.535156 97.691406 C 352.042969 97.691406 351.558594 97.832031 351.082031 98.113281 Z M 350.816406 103.613281 C 349.679688 102.949219 349.113281 101.957031 349.113281 100.644531 C 349.113281 99.324219 349.679688 98.328125 350.816406 97.660156 C 351.386719 97.328125 351.960938 97.160156 352.535156 97.160156 C 353.105469 97.160156 353.679688 97.328125 354.253906 97.660156 C 355.398438 98.328125 355.972656 99.324219 355.972656 100.644531 C 355.972656 101.957031 355.398438 102.949219 354.253906 103.613281 C 353.679688 103.933594 353.105469 104.097656 352.535156 104.097656 C 351.960938 104.097656 351.386719 103.933594 350.816406 103.613281 Z M 356.464844 102.972656 "/>
<path style=" stroke:none;fill-rule:nonzero;fill:rgb(0%,0%,0%);fill-opacity:1;" d="M 232.464844 98.113281 C 231.484375 98.675781 230.996094 99.519531 230.996094 100.644531 C 230.996094 101.761719 231.484375 102.597656 232.464844 103.160156 C 232.941406 103.441406 233.425781 103.582031 233.917969 103.582031 C 234.40625 103.582031 234.894531 103.441406 235.386719 103.160156 C 236.355469 102.597656 236.839844 101.761719 236.839844 100.644531 C 236.839844 99.519531 236.355469 98.675781 235.386719 98.113281 C 234.894531 97.832031 234.40625 97.691406 233.917969 97.691406 C 233.425781 97.691406 232.941406 97.832031 232.464844 98.113281 Z M 232.199219 103.613281 C 231.0625 102.949219 230.496094 101.957031 230.496094 100.644531 C 230.496094 99.324219 231.0625 98.328125 232.199219 97.660156 C 232.769531 97.328125 233.34375 97.160156 233.917969 97.160156 C 234.488281 97.160156 235.0625 97.328125 235.636719 97.660156 C 236.78125 98.328125 237.355469 99.324219 237.355469 100.644531 C 237.355469 101.957031 236.78125 102.949219 235.636719 103.613281 C 235.0625 103.933594 234.488281 104.097656 233.917969 104.097656 C 233.34375 104.097656 232.769531 103.933594 232.199219 103.613281 Z M 237.847656 102.972656 "/>
<path style=" stroke:none;fill-rule:nonzero;fill:rgb(0%,0%,0%);fill-opacity:1;" d="M 183.945312 98.113281 C 182.964844 98.675781 182.476562 99.519531 182.476562 100.644531 C 182.476562 101.761719 182.964844 102.597656 183.945312 103.160156 C 184.421875 103.441406 184.90625 103.582031 185.398438 103.582031 C 185.886719 103.582031 186.375 103.441406 186.867188 103.160156 C 187.835938 102.597656 188.320312 101.761719 188.320312 100.644531 C 188.320312 99.519531 187.835938 98.675781 186.867188 98.113281 C 186.375 97.832031 185.886719 97.691406 185.398438 97.691406 C 184.90625 97.691406 184.421875 97.832031 183.945312 98.113281 Z M 183.679688 103.613281 C 182.542969 102.949219 181.976562 101.957031 181.976562 100.644531 C 181.976562 99.324219 182.542969 98.328125 183.679688 97.660156 C 184.25 97.328125 184.824219 97.160156 185.398438 97.160156 C 185.96875 97.160156 186.542969 97.328125 187.117188 97.660156 C 188.261719 98.328125 188.835938 99.324219 188.835938 100.644531 C 188.835938 101.957031 188.261719 102.949219 187.117188 103.613281 C 186.542969 103.933594 185.96875 104.097656 185.398438 104.097656 C 184.824219 104.097656 184.25 103.933594 183.679688 103.613281 Z M 189.328125 102.972656 "/>
<path style=" stroke:none;fill-rule:nonzero;fill:rgb(0%,0%,0%);fill-opacity:1;" d="M 429.015625 98.113281 C 428.035156 98.675781 427.546875 99.519531 427.546875 100.644531 C 427.546875 101.761719 428.035156 102.597656 429.015625 103.160156 C 429.492188 103.441406 429.976562 103.582031 430.46875 103.582031 C 430.957031 103.582031 431.445312 103.441406 431.9375 103.160156 C 432.90625 102.597656 433.390625 101.761719 433.390625 100.644531 C 433.390625 99.519531 432.90625 98.675781 431.9375 98.113281 C 431.445312 97.832031 430.957031 97.691406 430.46875 97.691406 C 429.976562 97.691406 429.492188 97.832031 429.015625 98.113281 Z M 428.75 103.613281 C 427.613281 102.949219 427.046875 101.957031 427.046875 100.644531 C 427.046875 99.324219 427.613281 98.328125 428.75 97.660156 C 429.320312 97.328125 429.894531 97.160156 430.46875 97.160156 C 431.039062 97.160156 431.613281 97.328125 432.1875 97.660156 C 433.332031 98.328125 433.90625 99.324219 433.90625 100.644531 C 433.90625 101.957031 433.332031 102.949219 432.1875 103.613281 C 431.613281 103.933594 431.039062 104.097656 430.46875 104.097656 C 429.894531 104.097656 429.320312 103.933594 428.75 103.613281 Z M 434.398438 102.972656 "/>
<path style=" stroke:none;fill-rule:nonzero;fill:rgb(0%,0%,0%);fill-opacity:1;" d="M 374.859375 98.113281 C 373.878906 98.675781 373.390625 99.519531 373.390625 100.644531 C 373.390625 101.761719 373.878906 102.597656 374.859375 103.160156 C 375.335938 103.441406 375.820312 103.582031 376.3125 103.582031 C 376.800781 103.582031 377.289062 103.441406 377.78125 103.160156 C 378.75 102.597656 379.234375 101.761719 379.234375 100.644531 C 379.234375 99.519531 378.75 98.675781 377.78125 98.113281 C 377.289062 97.832031 376.800781 97.691406 376.3125 97.691406 C 375.820312 97.691406 375.335938 97.832031 374.859375 98.113281 Z M 374.59375 103.613281 C 373.457031 102.949219 372.890625 101.957031 372.890625 100.644531 C 372.890625 99.324219 373.457031 98.328125 374.59375 97.660156 C 375.164062 97.328125 375.738281 97.160156 376.3125 97.160156 C 376.882812 97.160156 377.457031 97.328125 378.03125 97.660156 C 379.175781 98.328125 379.75 99.324219 379.75 100.644531 C 379.75 101.957031 379.175781 102.949219 378.03125 103.613281 C 377.457031 103.933594 376.882812 104.097656 376.3125 104.097656 C 375.738281 104.097656 375.164062 103.933594 374.59375 103.613281 Z M 380.242188 102.972656 "/>
<path style=" stroke:none;fill-rule:nonzero;fill:rgb(0%,0%,0%);fill-opacity:1;" d="M 279.675781 310.84375 C 278.695312 311.40625 278.207031 312.25 278.207031 313.375 C 278.207031 314.492188 278.695312 315.328125 279.675781 315.890625 C 280.152344 316.171875 280.636719 316.3125 281.128906 316.3125 C 281.617188 316.3125 282.105469 316.171875 282.597656 315.890625 C 283.566406 315.328125 284.050781 314.492188 284.050781 313.375 C 284.050781 312.25 283.566406 311.40625 282.597656 310.84375 C 282.105469 310.5625 281.617188 310.421875 281.128906 310.421875 C 280.636719 310.421875 280.152344 310.5625 279.675781 310.84375 Z M 279.410156 316.34375 C 278.273438 315.679688 277.707031 314.6875 277.707031 313.375 C 277.707031 312.054688 278.273438 311.058594 279.410156 310.390625 C 279.980469 310.058594 280.554688 309.890625 281.128906 309.890625 C 281.699219 309.890625 282.273438 310.058594 282.847656 310.390625 C 283.992188 311.058594 284.566406 312.054688 284.566406 313.375 C 284.566406 314.6875 283.992188 315.679688 282.847656 316.34375 C 282.273438 316.664062 281.699219 316.828125 281.128906 316.828125 C 280.554688 316.828125 279.980469 316.664062 279.410156 316.34375 Z M 285.058594 315.703125 "/>
<path style=" stroke:none;fill-rule:nonzero;fill:rgb(0%,0%,0%);fill-opacity:1;" d="M 325.585938 310.84375 C 324.605469 311.40625 324.117188 312.25 324.117188 313.375 C 324.117188 314.492188 324.605469 315.328125 325.585938 315.890625 C 326.0625 316.171875 326.546875 316.3125 327.039062 316.3125 C 327.527344 316.3125 328.015625 316.171875 328.507812 315.890625 C 329.476562 315.328125 329.960938 314.492188 329.960938 313.375 C 329.960938 312.25 329.476562 311.40625 328.507812 310.84375 C 328.015625 310.5625 327.527344 310.421875 327.039062 310.421875 C 326.546875 310.421875 326.0625 310.5625 325.585938 310.84375 Z M 325.320312 316.34375 C 324.183594 315.679688 323.617188 314.6875 323.617188 313.375 C 323.617188 312.054688 324.183594 311.058594 325.320312 310.390625 C 325.890625 310.058594 326.464844 309.890625 327.039062 309.890625 C 327.609375 309.890625 328.183594 310.058594 328.757812 310.390625 C 329.902344 311.058594 330.476562 312.054688 330.476562 313.375 C 330.476562 314.6875 329.902344 315.679688 328.757812 316.34375 C 328.183594 316.664062 327.609375 316.828125 327.039062 316.828125 C 326.464844 316.828125 325.890625 316.664062 325.320312 316.34375 Z M 330.96875 315.703125 "/>
<path style=" stroke:none;fill-rule:nonzero;fill:rgb(0%,0%,0%);fill-opacity:1;" d="M 121.199219 310.84375 C 120.21875 311.40625 119.730469 312.25 119.730469 313.375 C 119.730469 314.492188 120.21875 315.328125 121.199219 315.890625 C 121.675781 316.171875 122.160156 316.3125 122.652344 316.3125 C 123.140625 316.3125 123.628906 316.171875 124.121094 315.890625 C 125.089844 315.328125 125.574219 314.492188 125.574219 313.375 C 125.574219 312.25 125.089844 311.40625 124.121094 310.84375 C 123.628906 310.5625 123.140625 310.421875 122.652344 310.421875 C 122.160156 310.421875 121.675781 310.5625 121.199219 310.84375 Z M 120.933594 316.34375 C 119.796875 315.679688 119.230469 314.6875 119.230469 313.375 C 119.230469 312.054688 119.796875 311.058594 120.933594 310.390625 C 121.503906 310.058594 122.078125 309.890625 122.652344 309.890625 C 123.222656 309.890625 123.796875 310.058594 124.371094 310.390625 C 125.515625 311.058594 126.089844 312.054688 126.089844 313.375 C 126.089844 314.6875 125.515625 315.679688 124.371094 316.34375 C 123.796875 316.664062 123.222656 316.828125 122.652344 316.828125 C 122.078125 316.828125 121.503906 316.664062 120.933594 316.34375 Z M 126.582031 315.703125 "/>
<path style=" stroke:none;fill-rule:nonzero;fill:rgb(0%,0%,0%);fill-opacity:1;" d="M 505.367188 310.84375 C 504.386719 311.40625 503.898438 312.25 503.898438 313.375 C 503.898438 314.492188 504.386719 315.328125 505.367188 315.890625 C 505.84375 316.171875 506.328125 316.3125 506.820312 316.3125 C 507.308594 316.3125 507.796875 316.171875 508.289062 315.890625 C 509.257812 315.328125 509.742188 314.492188 509.742188 313.375 C 509.742188 312.25 509.257812 311.40625 508.289062 310.84375 C 507.796875 310.5625 507.308594 310.421875 506.820312 310.421875 C 506.328125 310.421875 505.84375 310.5625 505.367188 310.84375 Z M 505.101562 316.34375 C 503.964844 315.679688 503.398438 314.6875 503.398438 313.375 C 503.398438 312.054688 503.964844 311.058594 505.101562 310.390625 C 505.671875 310.058594 506.246094 309.890625 506.820312 309.890625 C 507.390625 309.890625 507.964844 310.058594 508.539062 310.390625 C 509.683594 311.058594 510.257812 312.054688 510.257812 313.375 C 510.257812 314.6875 509.683594 315.679688 508.539062 316.34375 C 507.964844 316.664062 507.390625 316.828125 506.820312 316.828125 C 506.246094 316.828125 505.671875 316.664062 505.101562 316.34375 Z M 510.75 315.703125 "/>
<path style=" stroke:none;fill-rule:nonzero;fill:rgb(0%,0%,0%);fill-opacity:1;" d="M 69.65625 310.84375 C 68.675781 311.40625 68.1875 312.25 68.1875 313.375 C 68.1875 314.492188 68.675781 315.328125 69.65625 315.890625 C 70.132812 316.171875 70.617188 316.3125 71.109375 316.3125 C 71.597656 316.3125 72.085938 316.171875 72.578125 315.890625 C 73.546875 315.328125 74.03125 314.492188 74.03125 313.375 C 74.03125 312.25 73.546875 311.40625 72.578125 310.84375 C 72.085938 310.5625 71.597656 310.421875 71.109375 310.421875 C 70.617188 310.421875 70.132812 310.5625 69.65625 310.84375 Z M 69.390625 316.34375 C 68.253906 315.679688 67.6875 314.6875 67.6875 313.375 C 67.6875 312.054688 68.253906 311.058594 69.390625 310.390625 C 69.960938 310.058594 70.535156 309.890625 71.109375 309.890625 C 71.679688 309.890625 72.253906 310.058594 72.828125 310.390625 C 73.972656 311.058594 74.546875 312.054688 74.546875 313.375 C 74.546875 314.6875 73.972656 315.679688 72.828125 316.34375 C 72.253906 316.664062 71.679688 316.828125 71.109375 316.828125 C 70.535156 316.828125 69.960938 316.664062 69.390625 316.34375 Z M 75.039062 315.703125 "/>
<path style=" stroke:none;fill-rule:nonzero;fill:rgb(0%,0%,0%);fill-opacity:1;" d="M 104.085938 27.207031 C 103.105469 27.769531 102.617188 28.613281 102.617188 29.738281 C 102.617188 30.855469 103.105469 31.691406 104.085938 32.253906 C 104.5625 32.535156 105.046875 32.675781 105.539062 32.675781 C 106.027344 32.675781 106.515625 32.535156 107.007812 32.253906 C 107.976562 31.691406 108.460938 30.855469 108.460938 29.738281 C 108.460938 28.613281 107.976562 27.769531 107.007812 27.207031 C 106.515625 26.925781 106.027344 26.785156 105.539062 26.785156 C 105.046875 26.785156 104.5625 26.925781 104.085938 27.207031 Z M 103.820312 32.707031 C 102.683594 32.042969 102.117188 31.050781 102.117188 29.738281 C 102.117188 28.417969 102.683594 27.421875 103.820312 26.753906 C 104.390625 26.421875 104.964844 26.253906 105.539062 26.253906 C 106.109375 26.253906 106.683594 26.421875 107.257812 26.753906 C 108.402344 27.421875 108.976562 28.417969 108.976562 29.738281 C 108.976562 31.050781 108.402344 32.042969 107.257812 32.707031 C 106.683594 33.027344 106.109375 33.191406 105.539062 33.191406 C 104.964844 33.191406 104.390625 33.027344 103.820312 32.707031 Z M 109.46875 32.066406 "/>
<path style=" stroke:none;fill-rule:nonzero;fill:rgb(0%,0%,0%);fill-opacity:1;" d="M 457.191406 27.207031 C 456.210938 27.769531 455.722656 28.613281 455.722656 29.738281 C 455.722656 30.855469 456.210938 31.691406 457.191406 32.253906 C 457.667969 32.535156 458.152344 32.675781 458.644531 32.675781 C 459.132812 32.675781 459.621094 32.535156 460.113281 32.253906 C 461.082031 31.691406 461.566406 30.855469 461.566406 29.738281 C 461.566406 28.613281 461.082031 27.769531 460.113281 27.207031 C 459.621094 26.925781 459.132812 26.785156 458.644531 26.785156 C 458.152344 26.785156 457.667969 26.925781 457.191406 27.207031 Z M 456.925781 32.707031 C 455.789062 32.042969 455.222656 31.050781 455.222656 29.738281 C 455.222656 28.417969 455.789062 27.421875 456.925781 26.753906 C 457.496094 26.421875 458.070312 26.253906 458.644531 26.253906 C 459.214844 26.253906 459.789062 26.421875 460.363281 26.753906 C 461.507812 27.421875 462.082031 28.417969 462.082031 29.738281 C 462.082031 31.050781 461.507812 32.042969 460.363281 32.707031 C 459.789062 33.027344 459.214844 33.191406 458.644531 33.191406 C 458.070312 33.191406 457.496094 33.027344 456.925781 32.707031 Z M 462.574219 32.066406 "/>
<path style=" stroke:none;fill-rule:nonzero;fill:rgb(0%,0%,0%);fill-opacity:1;" d="M 561.929688 27.207031 C 560.949219 27.769531 560.460938 28.613281 560.460938 29.738281 C 560.460938 30.855469 560.949219 31.691406 561.929688 32.253906 C 562.40625 32.535156 562.890625 32.675781 563.382812 32.675781 C 563.871094 32.675781 564.359375 32.535156 564.851562 32.253906 C 565.820312 31.691406 566.304688 30.855469 566.304688 29.738281 C 566.304688 28.613281 565.820312 27.769531 564.851562 27.207031 C 564.359375 26.925781 563.871094 26.785156 563.382812 26.785156 C 562.890625 26.785156 562.40625 26.925781 561.929688 27.207031 Z M 561.664062 32.707031 C 560.527344 32.042969 559.960938 31.050781 559.960938 29.738281 C 559.960938 28.417969 560.527344 27.421875 561.664062 26.753906 C 562.234375 26.421875 562.808594 26.253906 563.382812 26.253906 C 563.953125 26.253906 564.527344 26.421875 565.101562 26.753906 C 566.246094 27.421875 566.820312 28.417969 566.820312 29.738281 C 566.820312 31.050781 566.246094 32.042969 565.101562 32.707031 C 564.527344 33.027344 563.953125 33.191406 563.382812 33.191406 C 562.808594 33.191406 562.234375 33.027344 561.664062 32.707031 Z M 567.3125 32.066406 "/>
<path style=" stroke:none;fill-rule:nonzero;fill:rgb(0%,0%,0%);fill-opacity:1;" d="M 289.644531 27.207031 C 288.664062 27.769531 288.175781 28.613281 288.175781 29.738281 C 288.175781 30.855469 288.664062 31.691406 289.644531 32.253906 C 290.121094 32.535156 290.605469 32.675781 291.097656 32.675781 C 291.585938 32.675781 292.074219 32.535156 292.566406 32.253906 C 293.535156 31.691406 294.019531 30.855469 294.019531 29.738281 C 294.019531 28.613281 293.535156 27.769531 292.566406 27.207031 C 292.074219 26.925781 291.585938 26.785156 291.097656 26.785156 C 290.605469 26.785156 290.121094 26.925781 289.644531 27.207031 Z M 289.378906 32.707031 C 288.242188 32.042969 287.675781 31.050781 287.675781 29.738281 C 287.675781 28.417969 288.242188 27.421875 289.378906 26.753906 C 289.949219 26.421875 290.523438 26.253906 291.097656 26.253906 C 291.667969 26.253906 292.242188 26.421875 292.816406 26.753906 C 293.960938 27.421875 294.535156 28.417969 294.535156 29.738281 C 294.535156 31.050781 293.960938 32.042969 292.816406 32.707031 C 292.242188 33.027344 291.667969 33.191406 291.097656 33.191406 C 290.523438 33.191406 289.949219 33.027344 289.378906 32.707031 Z M 295.027344 32.066406 "/>
<path style=" stroke:none;fill-rule:nonzero;fill:rgb(0%,0%,0%);fill-opacity:1;" d="M 380.910156 27.207031 C 379.929688 27.769531 379.441406 28.613281 379.441406 29.738281 C 379.441406 30.855469 379.929688 31.691406 380.910156 32.253906 C 381.386719 32.535156 381.871094 32.675781 382.363281 32.675781 C 382.851562 32.675781 383.339844 32.535156 383.832031 32.253906 C 384.800781 31.691406 385.285156 30.855469 385.285156 29.738281 C 385.285156 28.613281 384.800781 27.769531 383.832031 27.207031 C 383.339844 26.925781 382.851562 26.785156 382.363281 26.785156 C 381.871094 26.785156 381.386719 26.925781 380.910156 27.207031 Z M 380.644531 32.707031 C 379.507812 32.042969 378.941406 31.050781 378.941406 29.738281 C 378.941406 28.417969 379.507812 27.421875 380.644531 26.753906 C 381.214844 26.421875 381.789062 26.253906 382.363281 26.253906 C 382.933594 26.253906 383.507812 26.421875 384.082031 26.753906 C 385.226562 27.421875 385.800781 28.417969 385.800781 29.738281 C 385.800781 31.050781 385.226562 32.042969 384.082031 32.707031 C 383.507812 33.027344 382.933594 33.191406 382.363281 33.191406 C 381.789062 33.191406 381.214844 33.027344 380.644531 32.707031 Z M 386.292969 32.066406 "/>
<path style=" stroke:none;fill-rule:nonzero;fill:rgb(0%,0%,0%);fill-opacity:1;" d="M 176.316406 239.933594 C 175.335938 240.496094 174.847656 241.339844 174.847656 242.464844 C 174.847656 243.582031 175.335938 244.417969 176.316406 244.980469 C 176.792969 245.261719 177.277344 245.402344 177.769531 245.402344 C 178.257812 245.402344 178.746094 245.261719 179.238281 244.980469 C 180.207031 244.417969 180.691406 243.582031 180.691406 242.464844 C 180.691406 241.339844 180.207031 240.496094 179.238281 239.933594 C 178.746094 239.652344 178.257812 239.511719 177.769531 239.511719 C 177.277344 239.511719 176.792969 239.652344 176.316406 239.933594 Z M 176.050781 245.433594 C 174.914062 244.769531 174.347656 243.777344 174.347656 242.464844 C 174.347656 241.144531 174.914062 240.148438 176.050781 239.480469 C 176.621094 239.148438 177.195312 238.980469 177.769531 238.980469 C 178.339844 238.980469 178.914062 239.148438 179.488281 239.480469 C 180.632812 240.148438 181.207031 241.144531 181.207031 242.464844 C 181.207031 243.777344 180.632812 244.769531 179.488281 245.433594 C 178.914062 245.753906 178.339844 245.917969 177.769531 245.917969 C 177.195312 245.917969 176.621094 245.753906 176.050781 245.433594 Z M 181.699219 244.792969 "/>
<path style=" stroke:none;fill-rule:nonzero;fill:rgb(0%,0%,0%);fill-opacity:1;" d="M 267.03125 239.933594 C 266.050781 240.496094 265.5625 241.339844 265.5625 242.464844 C 265.5625 243.582031 266.050781 244.417969 267.03125 244.980469 C 267.507812 245.261719 267.992188 245.402344 268.484375 245.402344 C 268.972656 245.402344 269.460938 245.261719 269.953125 244.980469 C 270.921875 244.417969 271.40625 243.582031 271.40625 242.464844 C 271.40625 241.339844 270.921875 240.496094 269.953125 239.933594 C 269.460938 239.652344 268.972656 239.511719 268.484375 239.511719 C 267.992188 239.511719 267.507812 239.652344 267.03125 239.933594 Z M 266.765625 245.433594 C 265.628906 244.769531 265.0625 243.777344 265.0625 242.464844 C 265.0625 241.144531 265.628906 240.148438 266.765625 239.480469 C 267.335938 239.148438 267.910156 238.980469 268.484375 238.980469 C 269.054688 238.980469 269.628906 239.148438 270.203125 239.480469 C 271.347656 240.148438 271.921875 241.144531 271.921875 242.464844 C 271.921875 243.777344 271.347656 244.769531 270.203125 245.433594 C 269.628906 245.753906 269.054688 245.917969 268.484375 245.917969 C 267.910156 245.917969 267.335938 245.753906 266.765625 245.433594 Z M 272.414062 244.792969 "/>
<path style=" stroke:none;fill-rule:nonzero;fill:rgb(0%,0%,0%);fill-opacity:1;" d="M 344.003906 239.933594 C 343.023438 240.496094 342.535156 241.339844 342.535156 242.464844 C 342.535156 243.582031 343.023438 244.417969 344.003906 244.980469 C 344.480469 245.261719 344.964844 245.402344 345.457031 245.402344 C 345.945312 245.402344 346.433594 245.261719 346.925781 244.980469 C 347.894531 244.417969 348.378906 243.582031 348.378906 242.464844 C 348.378906 241.339844 347.894531 240.496094 346.925781 239.933594 C 346.433594 239.652344 345.945312 239.511719 345.457031 239.511719 C 344.964844 239.511719 344.480469 239.652344 344.003906 239.933594 Z M 343.738281 245.433594 C 342.601562 244.769531 342.035156 243.777344 342.035156 242.464844 C 342.035156 241.144531 342.601562 240.148438 343.738281 239.480469 C 344.308594 239.148438 344.882812 238.980469 345.457031 238.980469 C 346.027344 238.980469 346.601562 239.148438 347.175781 239.480469 C 348.320312 240.148438 348.894531 241.144531 348.894531 242.464844 C 348.894531 243.777344 348.320312 244.769531 347.175781 245.433594 C 346.601562 245.753906 346.027344 245.917969 345.457031 245.917969 C 344.882812 245.917969 344.308594 245.753906 343.738281 245.433594 Z M 349.386719 244.792969 "/>
<path style=" stroke:none;fill-rule:nonzero;fill:rgb(0%,0%,0%);fill-opacity:1;" d="M 419.464844 239.933594 C 418.484375 240.496094 417.996094 241.339844 417.996094 242.464844 C 417.996094 243.582031 418.484375 244.417969 419.464844 244.980469 C 419.941406 245.261719 420.425781 245.402344 420.917969 245.402344 C 421.40625 245.402344 421.894531 245.261719 422.386719 244.980469 C 423.355469 244.417969 423.839844 243.582031 423.839844 242.464844 C 423.839844 241.339844 423.355469 240.496094 422.386719 239.933594 C 421.894531 239.652344 421.40625 239.511719 420.917969 239.511719 C 420.425781 239.511719 419.941406 239.652344 419.464844 239.933594 Z M 419.199219 245.433594 C 418.0625 244.769531 417.496094 243.777344 417.496094 242.464844 C 417.496094 241.144531 418.0625 240.148438 419.199219 239.480469 C 419.769531 239.148438 420.34375 238.980469 420.917969 238.980469 C 421.488281 238.980469 422.0625 239.148438 422.636719 239.480469 C 423.78125 240.148438 424.355469 241.144531 424.355469 242.464844 C 424.355469 243.777344 423.78125 244.769531 422.636719 245.433594 C 422.0625 245.753906 421.488281 245.917969 420.917969 245.917969 C 420.34375 245.917969 419.769531 245.753906 419.199219 245.433594 Z M 424.847656 244.792969 "/>
<path style=" stroke:none;fill-rule:nonzero;fill:rgb(0%,0%,0%);fill-opacity:1;" d="M 271.429688 239.933594 C 270.449219 240.496094 269.960938 241.339844 269.960938 242.464844 C 269.960938 243.582031 270.449219 244.417969 271.429688 244.980469 C 271.90625 245.261719 272.390625 245.402344 272.882812 245.402344 C 273.371094 245.402344 273.859375 245.261719 274.351562 244.980469 C 275.320312 244.417969 275.804688 243.582031 275.804688 242.464844 C 275.804688 241.339844 275.320312 240.496094 274.351562 239.933594 C 273.859375 239.652344 273.371094 239.511719 272.882812 239.511719 C 272.390625 239.511719 271.90625 239.652344 271.429688 239.933594 Z M 271.164062 245.433594 C 270.027344 244.769531 269.460938 243.777344 269.460938 242.464844 C 269.460938 241.144531 270.027344 240.148438 271.164062 239.480469 C 271.734375 239.148438 272.308594 238.980469 272.882812 238.980469 C 273.453125 238.980469 274.027344 239.148438 274.601562 239.480469 C 275.746094 240.148438 276.320312 241.144531 276.320312 242.464844 C 276.320312 243.777344 275.746094 244.769531 274.601562 245.433594 C 274.027344 245.753906 273.453125 245.917969 272.882812 245.917969 C 272.308594 245.917969 271.734375 245.753906 271.164062 245.433594 Z M 276.8125 244.792969 "/>
<path style=" stroke:none;fill-rule:nonzero;fill:rgb(0%,0%,0%);fill-opacity:1;" d="M 109.996094 169.023438 C 109.015625 169.585938 108.527344 170.429688 108.527344 171.554688 C 108.527344 172.671875 109.015625 173.507812 109.996094 174.070312 C 110.472656 174.351562 110.957031 174.492188 111.449219 174.492188 C 111.9375 174.492188 112.425781 174.351562 112.917969 174.070312 C 113.886719 173.507812 114.371094 172.671875 114.371094 171.554688 C 114.371094 170.429688 113.886719 169.585938 112.917969 169.023438 C 112.425781 168.742188 111.9375 168.601562 111.449219 168.601562 C 110.957031 168.601562 110.472656 168.742188 109.996094 169.023438 Z M 109.730469 174.523438 C 108.59375 173.859375 108.027344 172.867188 108.027344 171.554688 C 108.027344 170.234375 108.59375 169.238281 109.730469 168.570312 C 110.300781 168.238281 110.875 168.070312 111.449219 168.070312 C 112.019531 168.070312 112.59375 168.238281 113.167969 168.570312 C 114.3125 169.238281 114.886719 170.234375 114.886719 171.554688 C 114.886719 172.867188 114.3125 173.859375 113.167969 174.523438 C 112.59375 174.84375 112.019531 175.007812 111.449219 175.007812 C 110.875 175.007812 110.300781 174.84375 109.730469 174.523438 Z M 115.378906 173.882812 "/>
<path style=" stroke:none;fill-rule:nonzero;fill:rgb(0%,0%,0%);fill-opacity:1;" d="M 410.046875 169.023438 C 409.066406 169.585938 408.578125 170.429688 408.578125 171.554688 C 408.578125 172.671875 409.066406 173.507812 410.046875 174.070312 C 410.523438 174.351562 411.007812 174.492188 411.5 174.492188 C 411.988281 174.492188 412.476562 174.351562 412.96875 174.070312 C 413.9375 173.507812 414.421875 172.671875 414.421875 171.554688 C 414.421875 170.429688 413.9375 169.585938 412.96875 169.023438 C 412.476562 168.742188 411.988281 168.601562 411.5 168.601562 C 411.007812 168.601562 410.523438 168.742188 410.046875 169.023438 Z M 409.78125 174.523438 C 408.644531 173.859375 408.078125 172.867188 408.078125 171.554688 C 408.078125 170.234375 408.644531 169.238281 409.78125 168.570312 C 410.351562 168.238281 410.925781 168.070312 411.5 168.070312 C 412.070312 168.070312 412.644531 168.238281 413.21875 168.570312 C 414.363281 169.238281 414.9375 170.234375 414.9375 171.554688 C 414.9375 172.867188 414.363281 173.859375 413.21875 174.523438 C 412.644531 174.84375 412.070312 175.007812 411.5 175.007812 C 410.925781 175.007812 410.351562 174.84375 409.78125 174.523438 Z M 415.429688 173.882812 "/>
<path style=" stroke:none;fill-rule:nonzero;fill:rgb(0%,0%,0%);fill-opacity:1;" d="M 253.492188 169.023438 C 252.511719 169.585938 252.023438 170.429688 252.023438 171.554688 C 252.023438 172.671875 252.511719 173.507812 253.492188 174.070312 C 253.96875 174.351562 254.453125 174.492188 254.945312 174.492188 C 255.433594 174.492188 255.921875 174.351562 256.414062 174.070312 C 257.382812 173.507812 257.867188 172.671875 257.867188 171.554688 C 257.867188 170.429688 257.382812 169.585938 256.414062 169.023438 C 255.921875 168.742188 255.433594 168.601562 254.945312 168.601562 C 254.453125 168.601562 253.96875 168.742188 253.492188 169.023438 Z M 253.226562 174.523438 C 252.089844 173.859375 251.523438 172.867188 251.523438 171.554688 C 251.523438 170.234375 252.089844 169.238281 253.226562 168.570312 C 253.796875 168.238281 254.371094 168.070312 254.945312 168.070312 C 255.515625 168.070312 256.089844 168.238281 256.664062 168.570312 C 257.808594 169.238281 258.382812 170.234375 258.382812 171.554688 C 258.382812 172.867188 257.808594 173.859375 256.664062 174.523438 C 256.089844 174.84375 255.515625 175.007812 254.945312 175.007812 C 254.371094 175.007812 253.796875 174.84375 253.226562 174.523438 Z M 258.875 173.882812 "/>
<path style=" stroke:none;fill-rule:nonzero;fill:rgb(0%,0%,0%);fill-opacity:1;" d="M 424.890625 169.023438 C 423.910156 169.585938 423.421875 170.429688 423.421875 171.554688 C 423.421875 172.671875 423.910156 173.507812 424.890625 174.070312 C 425.367188 174.351562 425.851562 174.492188 426.34375 174.492188 C 426.832031 174.492188 427.320312 174.351562 427.8125 174.070312 C 428.78125 173.507812 429.265625 172.671875 429.265625 171.554688 C 429.265625 170.429688 428.78125 169.585938 427.8125 169.023438 C 427.320312 168.742188 426.832031 168.601562 426.34375 168.601562 C 425.851562 168.601562 425.367188 168.742188 424.890625 169.023438 Z M 424.625 174.523438 C 423.488281 173.859375 422.921875 172.867188 422.921875 171.554688 C 422.921875 170.234375 423.488281 169.238281 424.625 168.570312 C 425.195312 168.238281 425.769531 168.070312 426.34375 168.070312 C 426.914062 168.070312 427.488281 168.238281 428.0625 168.570312 C 429.207031 169.238281 429.78125 170.234375 429.78125 171.554688 C 429.78125 172.867188 429.207031 173.859375 428.0625 174.523438 C 427.488281 174.84375 426.914062 175.007812 426.34375 175.007812 C 425.769531 175.007812 425.195312 174.84375 424.625 174.523438 Z M 430.273438 173.882812 "/>
<path style=" stroke:none;fill-rule:nonzero;fill:rgb(0%,0%,0%);fill-opacity:1;" d="M 347.644531 169.023438 C 346.664062 169.585938 346.175781 170.429688 346.175781 171.554688 C 346.175781 172.671875 346.664062 173.507812 347.644531 174.070312 C 348.121094 174.351562 348.605469 174.492188 349.097656 174.492188 C 349.585938 174.492188 350.074219 174.351562 350.566406 174.070312 C 351.535156 173.507812 352.019531 172.671875 352.019531 171.554688 C 352.019531 170.429688 351.535156 169.585938 350.566406 169.023438 C 350.074219 168.742188 349.585938 168.601562 349.097656 168.601562 C 348.605469 168.601562 348.121094 168.742188 347.644531 169.023438 Z M 347.378906 174.523438 C 346.242188 173.859375 345.675781 172.867188 345.675781 171.554688 C 345.675781 170.234375 346.242188 169.238281 347.378906 168.570312 C 347.949219 168.238281 348.523438 168.070312 349.097656 168.070312 C 349.667969 168.070312 350.242188 168.238281 350.816406 168.570312 C 351.960938 169.238281 352.535156 170.234375 352.535156 171.554688 C 352.535156 172.867188 351.960938 173.859375 350.816406 174.523438 C 350.242188 174.84375 349.667969 175.007812 349.097656 175.007812 C 348.523438 175.007812 347.949219 174.84375 347.378906 174.523438 Z M 353.027344 173.882812 "/>
<path style=" stroke:none;fill-rule:nonzero;fill:rgb(0%,0%,0%);fill-opacity:1;" d="M 159.480469 381.75 C 158.5 382.3125 158.011719 383.15625 158.011719 384.28125 C 158.011719 385.398438 158.5 386.234375 159.480469 386.796875 C 159.957031 387.078125 160.441406 387.21875 160.933594 387.21875 C 161.421875 387.21875 161.910156 387.078125 162.402344 386.796875 C 163.371094 386.234375 163.855469 385.398438 163.855469 384.28125 C 163.855469 383.15625 163.371094 382.3125 162.402344 381.75 C 161.910156 381.46875 161.421875 381.328125 160.933594 381.328125 C 160.441406 381.328125 159.957031 381.46875 159.480469 381.75 Z M 159.214844 387.25 C 158.078125 386.585938 157.511719 385.59375 157.511719 384.28125 C 157.511719 382.960938 158.078125 381.964844 159.214844 381.296875 C 159.785156 380.964844 160.359375 380.796875 160.933594 380.796875 C 161.503906 380.796875 162.078125 380.964844 162.652344 381.296875 C 163.796875 381.964844 164.371094 382.960938 164.371094 384.28125 C 164.371094 385.59375 163.796875 386.585938 162.652344 387.25 C 162.078125 387.570312 161.503906 387.734375 160.933594 387.734375 C 160.359375 387.734375 159.785156 387.570312 159.214844 387.25 Z M 164.863281 386.609375 "/>
<path style=" stroke:none;fill-rule:nonzero;fill:rgb(0%,0%,0%);fill-opacity:1;" d="M 264.625 381.75 C 263.644531 382.3125 263.15625 383.15625 263.15625 384.28125 C 263.15625 385.398438 263.644531 386.234375 264.625 386.796875 C 265.101562 387.078125 265.585938 387.21875 266.078125 387.21875 C 266.566406 387.21875 267.054688 387.078125 267.546875 386.796875 C 268.515625 386.234375 269 385.398438 269 384.28125 C 269 383.15625 268.515625 382.3125 267.546875 381.75 C 267.054688 381.46875 266.566406 381.328125 266.078125 381.328125 C 265.585938 381.328125 265.101562 381.46875 264.625 381.75 Z M 264.359375 387.25 C 263.222656 386.585938 262.65625 385.59375 262.65625 384.28125 C 262.65625 382.960938 263.222656 381.964844 264.359375 381.296875 C 264.929688 380.964844 265.503906 380.796875 266.078125 380.796875 C 266.648438 380.796875 267.222656 380.964844 267.796875 381.296875 C 268.941406 381.964844 269.515625 382.960938 269.515625 384.28125 C 269.515625 385.59375 268.941406 386.585938 267.796875 387.25 C 267.222656 387.570312 266.648438 387.734375 266.078125 387.734375 C 265.503906 387.734375 264.929688 387.570312 264.359375 387.25 Z M 270.007812 386.609375 "/>
<path style=" stroke:none;fill-rule:nonzero;fill:rgb(0%,0%,0%);fill-opacity:1;" d="M 378.847656 381.75 C 377.867188 382.3125 377.378906 383.15625 377.378906 384.28125 C 377.378906 385.398438 377.867188 386.234375 378.847656 386.796875 C 379.324219 387.078125 379.808594 387.21875 380.300781 387.21875 C 380.789062 387.21875 381.277344 387.078125 381.769531 386.796875 C 382.738281 386.234375 383.222656 385.398438 383.222656 384.28125 C 383.222656 383.15625 382.738281 382.3125 381.769531 381.75 C 381.277344 381.46875 380.789062 381.328125 380.300781 381.328125 C 379.808594 381.328125 379.324219 381.46875 378.847656 381.75 Z M 378.582031 387.25 C 377.445312 386.585938 376.878906 385.59375 376.878906 384.28125 C 376.878906 382.960938 377.445312 381.964844 378.582031 381.296875 C 379.152344 380.964844 379.726562 380.796875 380.300781 380.796875 C 380.871094 380.796875 381.445312 380.964844 382.019531 381.296875 C 383.164062 381.964844 383.738281 382.960938 383.738281 384.28125 C 383.738281 385.59375 383.164062 386.585938 382.019531 387.25 C 381.445312 387.570312 380.871094 387.734375 380.300781 387.734375 C 379.726562 387.734375 379.152344 387.570312 378.582031 387.25 Z M 384.230469 386.609375 "/>
<path style=" stroke:none;fill-rule:nonzero;fill:rgb(0%,0%,0%);fill-opacity:1;" d="M 126.351562 381.75 C 125.371094 382.3125 124.882812 383.15625 124.882812 384.28125 C 124.882812 385.398438 125.371094 386.234375 126.351562 386.796875 C 126.828125 387.078125 127.3125 387.21875 127.804688 387.21875 C 128.292969 387.21875 128.78125 387.078125 129.273438 386.796875 C 130.242188 386.234375 130.726562 385.398438 130.726562 384.28125 C 130.726562 383.15625 130.242188 382.3125 129.273438 381.75 C 128.78125 381.46875 128.292969 381.328125 127.804688 381.328125 C 127.3125 381.328125 126.828125 381.46875 126.351562 381.75 Z M 126.085938 387.25 C 124.949219 386.585938 124.382812 385.59375 124.382812 384.28125 C 124.382812 382.960938 124.949219 381.964844 126.085938 381.296875 C 126.65625 380.964844 127.230469 380.796875 127.804688 380.796875 C 128.375 380.796875 128.949219 380.964844 129.523438 381.296875 C 130.667969 381.964844 131.242188 382.960938 131.242188 384.28125 C 131.242188 385.59375 130.667969 386.585938 129.523438 387.25 C 128.949219 387.570312 128.375 387.734375 127.804688 387.734375 C 127.230469 387.734375 126.65625 387.570312 126.085938 387.25 Z M 131.734375 386.609375 "/>
<path style=" stroke:none;fill-rule:nonzero;fill:rgb(0%,0%,0%);fill-opacity:1;" d="M 229.441406 381.75 C 228.460938 382.3125 227.972656 383.15625 227.972656 384.28125 C 227.972656 385.398438 228.460938 386.234375 229.441406 386.796875 C 229.917969 387.078125 230.402344 387.21875 230.894531 387.21875 C 231.382812 387.21875 231.871094 387.078125 232.363281 386.796875 C 233.332031 386.234375 233.816406 385.398438 233.816406 384.28125 C 233.816406 383.15625 233.332031 382.3125 232.363281 381.75 C 231.871094 381.46875 231.382812 381.328125 230.894531 381.328125 C 230.402344 381.328125 229.917969 381.46875 229.441406 381.75 Z M 229.175781 387.25 C 228.039062 386.585938 227.472656 385.59375 227.472656 384.28125 C 227.472656 382.960938 228.039062 381.964844 229.175781 381.296875 C 229.746094 380.964844 230.320312 380.796875 230.894531 380.796875 C 231.464844 380.796875 232.039062 380.964844 232.613281 381.296875 C 233.757812 381.964844 234.332031 382.960938 234.332031 384.28125 C 234.332031 385.59375 233.757812 386.585938 232.613281 387.25 C 232.039062 387.570312 231.464844 387.734375 230.894531 387.734375 C 230.320312 387.734375 229.746094 387.570312 229.175781 387.25 Z M 234.824219 386.609375 "/>
<path style="fill:none;stroke-width:1.5;stroke-linecap:butt;stroke-linejoin:miter;stroke:rgb(0%,0%,0%);stroke-opacity:1;stroke-miterlimit:10;" d="M 310.942708 512.364583 L 349.005208 417.817708 L 396.140625 323.270833 L 414.229167 228.729167 L 420.973958 134.182292 L 480.28125 39.635417 " transform="matrix(0.75,0,0,0.75,0,0)"/>
<path style="fill:none;stroke-width:1;stroke-linecap:butt;stroke-linejoin:miter;stroke:rgb(0%,0%,0%);stroke-opacity:1;stroke-miterlimit:10;" d="M 135.6875 536.5 L 135.6875 542.5 " transform="matrix(0.75,0,0,0.75,0,0)"/>
<path style="fill:none;stroke-width:1;stroke-linecap:butt;stroke-linejoin:miter;stroke:rgb(0%,0%,0%);stroke-opacity:1;stroke-miterlimit:10;" d="M 364.765625 536.5 L 364.765625 542.5 " transform="matrix(0.75,0,0,0.75,0,0)"/>
<path style="fill:none;stroke-width:1;stroke-linecap:butt;stroke-linejoin:miter;stroke:rgb(0%,0%,0%);stroke-opacity:1;stroke-miterlimit:10;" d="M 593.848958 536.5 L 593.848958 542.5 " transform="matrix(0.75,0,0,0.75,0,0)"/>
<path style="fill:none;stroke-width:1;stroke-linecap:butt;stroke-linejoin:miter;stroke:rgb(0%,0%,0%);stroke-opacity:1;stroke-miterlimit:10;" d="M 61.5 512.364583 L 55.5 512.364583 " transform="matrix(0.75,0,0,0.75,0,0)"/>
<path style="fill:none;stroke-width:1;stroke-linecap:butt;stroke-linejoin:miter;stroke:rgb(0%,0%,0%);stroke-opacity:1;stroke-miterlimit:10;" d="M 61.5 417.817708 L 55.5 417.817708 " transform="matrix(0.75,0,0,0.75,0,0)"/>
<path style="fill:none;stroke-width:1;stroke-linecap:butt;stroke-linejoin:miter;stroke:rgb(0%,0%,0%);stroke-opacity:1;stroke-miterlimit:10;" d="M 61.5 323.270833 L 55.5 323.270833 " transform="matrix(0.75,0,0,0.75,0,0)"/>
<path style="fill:none;stroke-width:1;stroke-linecap:butt;stroke-linejoin:miter;stroke:rgb(0%,0%,0%);stroke-opacity:1;stroke-miterlimit:10;" d="M 61.5 228.729167 L 55.5 228.729167 " transform="matrix(0.75,0,0,0.75,0,0)"/>
<path style="fill:none;stroke-width:1;stroke-linecap:butt;stroke-linejoin:miter;stroke:rgb(0%,0%,0%);stroke-opacity:1;stroke-miterlimit:10;" d="M 61.5 134.182292 L 55.5 134.182292 " transform="matrix(0.75,0,0,0.75,0,0)"/>
<path style="fill:none;stroke-width:1;stroke-linecap:butt;stroke-linejoin:miter;stroke:rgb(0%,0%,0%);stroke-opacity:1;stroke-miterlimit:10;" d="M 61.5 39.635417 L 55.5 39.635417 " transform="matrix(0.75,0,0,0.75,0,0)"/>
<path style="fill:none;stroke-width:1;stroke-linecap:butt;stroke-linejoin:miter;stroke:rgb(0%,0%,0%);stroke-opacity:1;stroke-miterlimit:10;" d="M 61.5 536 L 784.5 536 " transform="matrix(0.75,0,0,0.75,0,0)"/>
<path style="fill:none;stroke-width:1;stroke-linecap:butt;stroke-linejoin:miter;stroke:rgb(0%,0%,0%);stroke-opacity:1;stroke-miterlimit:10;" d="M 62 536.5 L 62 15.5 " transform="matrix(0.75,0,0,0.75,0,0)"/>
<path style="fill:none;stroke-width:1;stroke-linecap:butt;stroke-linejoin:miter;stroke:rgb(0%,0%,0%);stroke-opacity:1;stroke-miterlimit:10;" d="M 61.5 16 L 784.5 16 " transform="matrix(0.75,0,0,0.75,0,0)"/>
<path style="fill:none;stroke-width:1;stroke-linecap:butt;stroke-linejoin:miter;stroke:rgb(0%,0%,0%);stroke-opacity:1;stroke-miterlimit:10;" d="M 784 536.5 L 784 15.5 " transform="matrix(0.75,0,0,0.75,0,0)"/>
</g>
</svg>
